<svg xmlns="http://www.w3.org/2000/svg" viewBox="0 0 196.98 187.89"><defs><style>.cls-1{fill:#fff;}</style></defs><title>ao</title><g id="Layer_2" data-name="Layer 2"><g id="Layer_1-2" data-name="Layer 1"><path class="cls-1" d="M176.66,157.07l-52.45-16.86-1.75-20.41a.08.08,0,0,1,0,0c3.45-4.18,8.22-11.57,8.94-17.18l.5-3.91a22.35,22.35,0,0,1,2.88-8.49,28.62,28.62,0,0,0,3.9-14.41V55a3.05,3.05,0,1,0-6.1,0V75.77a22.5,22.5,0,0,1-3.07,11.34,28.56,28.56,0,0,0-3.66,10.79l-.5,3.91c-.5,3.93-4.65,10.74-8.21,14.8a3,3,0,0,0-.67,2.72,3,3,0,0,0-.08,1l1.93,22.44a3,3,0,0,0,2.1,2.64l54.4,17.48a23,23,0,0,1,16.07,22,3.05,3.05,0,1,0,6.1,0A29,29,0,0,0,176.66,157.07Z"/><path class="cls-1" d="M183.21,122.31l-.68-8c1.59-2,3.79-5.49,4.16-8.42l.24-1.84a8.8,8.8,0,0,1,1.16-3.41,15.2,15.2,0,0,0,2.06-7.62V84.17a19.73,19.73,0,0,0-39.46,0v9.29a15.15,15.15,0,0,0,1.6,6.77l.27.55a9,9,0,0,1,.89,2.9l.28,2.24c.38,3,2.62,6.33,3.87,8l-.72,8.37L133.1,130a3,3,0,0,0,.94,6,3,3,0,0,0,.93-.15l25.71-8.26a3,3,0,0,0,2.1-2.64l.91-10.61c0-.14,0-.28,0-.42a3,3,0,0,0-.6-2.73c-1.46-1.78-3.15-4.58-3.32-5.94l-.28-2.24A15.25,15.25,0,0,0,158,98.06l-.28-.56a9.12,9.12,0,0,1-1-4V84.17a13.63,13.63,0,0,1,27.26,0v8.88a9.08,9.08,0,0,1-1.23,4.55,15,15,0,0,0-1.94,5.71l-.24,1.84c-.19,1.49-2,4.43-3.49,6.14a3,3,0,0,0-.74,2.33,3.21,3.21,0,0,0,0,.62l.91,10.61a3.06,3.06,0,0,0,2.11,2.64l12.39,4a3.05,3.05,0,0,0,1.87-5.81Z"/><path class="cls-1" d="M4,132,18,127.49a3,3,0,0,0,2.1-2.64l.92-10.61a2.94,2.94,0,0,0,0-.42,3,3,0,0,0-.59-2.73c-1.47-1.78-3.15-4.58-3.32-5.94l-.29-2.24a15,15,0,0,0-1.48-4.85l-.27-.56a9,9,0,0,1-1-4V84.17a13.63,13.63,0,0,1,27.26,0v8.88a9,9,0,0,1-1.23,4.55,15,15,0,0,0-1.94,5.71L38,105.15c-.19,1.49-2,4.43-3.5,6.14a3.09,3.09,0,0,0-.74,2.33,4.28,4.28,0,0,0,0,.62l.92,10.61a3,3,0,0,0,2.1,2.64l25.71,8.26a3,3,0,0,0,1.86-5.8l-23.77-7.64-.69-8c1.6-2,3.79-5.49,4.17-8.42l.23-1.84a9.15,9.15,0,0,1,1.16-3.41,15.1,15.1,0,0,0,2.06-7.62V84.17a19.73,19.73,0,0,0-39.46,0v9.29a15.28,15.28,0,0,0,1.6,6.77l.28.55a9.27,9.27,0,0,1,.88,2.9l.29,2.24c.37,3,2.61,6.33,3.86,8l-.72,8.37L2.12,126.2a3.05,3.05,0,0,0,.93,6A3,3,0,0,0,4,132Z"/><path class="cls-1" d="M127.05,65.06a37.11,37.11,0,0,0-.26-4.36,3,3,0,1,0-6.05.71,31.64,31.64,0,0,1,.21,3.65c0,14-9.25,25.31-20.62,25.31S79.72,79,79.72,65.06,89,39.75,100.33,39.75c6.84,0,13.22,4.2,17,11.08L109,56a11.1,11.1,0,0,0-8.7-4.42c-6.46,0-11.71,6-11.71,13.44S93.87,78.5,100.33,78.5a11.56,11.56,0,0,0,10.23-6.87A3,3,0,1,0,105.08,69a5.54,5.54,0,0,1-4.75,3.44c-3.09,0-5.62-3.29-5.62-7.34s2.53-7.34,5.62-7.34a4.86,4.86,0,0,1,3.46,1.59l-5.07,3.16A3.05,3.05,0,0,0,102,67.65l61.27-38.24,8.41,4.26A3.08,3.08,0,0,0,173,34a3,3,0,0,0,1.6-.46l18.24-11.28a3,3,0,0,0-.23-5.31l-7.93-4V3.05a3,3,0,0,0-4.64-2.6L161.76,11.62a3,3,0,0,0-1.46,2.6v9.83L134.71,40A38.33,38.33,0,0,0,62,57V76.65a28.67,28.67,0,0,0,3,12.79l.59,1.17a22.54,22.54,0,0,1,2.19,7.22l.61,4.75c.69,5.48,5.3,12.54,8.39,16.48a3.05,3.05,0,0,0-.16.74l-1.76,20.41L22.44,157.07A29,29,0,0,0,2.11,184.84a3.05,3.05,0,0,0,6.1,0,23,23,0,0,1,16.09-22L78.68,145.4a3.07,3.07,0,0,0,2.11-2.64l1.93-22.44a3.51,3.51,0,0,0-.08-1,3.05,3.05,0,0,0-.4-3.24c-3.42-4.13-7.31-10.55-7.78-14.29l-.61-4.75a28.6,28.6,0,0,0-2.79-9.17l-.59-1.18A22.68,22.68,0,0,1,68.1,76.65V57a32.24,32.24,0,0,1,61.41-13.72l-7,4.34c-4.92-8.67-13.22-14-22.22-14-14.73,0-26.71,14.09-26.71,31.41s12,31.41,26.71,31.41S127.05,82.38,127.05,65.06Zm45.81-37.6-3.59-1.82,12.09-7.55L185,19.94ZM166.4,15.93l12.19-7.45v4.15L166.4,20.24Z"/></g></g></svg>