<svg xmlns="http://www.w3.org/2000/svg" viewBox="0 0 211.54 190.19"><defs><style>.cls-1{fill:#fff;}</style></defs><title>co</title><g id="Layer_2" data-name="Layer 2"><g id="Layer_1-2" data-name="Layer 1"><path class="cls-1" d="M210.16,142.53l-10.64-7.65a3.32,3.32,0,0,0-4.26.32c-8.92,8.72-17.4,18.93-24.89,27.94-4.68,5.62-9.1,10.93-12.69,14.72-4.72,5-6.43,5.6-6.8,5.68s-4.18-.88-16.12-14c-6.81-7.5-15.11-17.73-23.49-28.91,1.73-5,3.34-10.44,4.81-16.46A102.92,102.92,0,0,0,134.16,140c6,4.33,10.72,7.77,14.85,15.08l1.5,5.35a3.33,3.33,0,0,0,3.2,2.43,3.48,3.48,0,0,0,.9-.12,3.32,3.32,0,0,0,2.3-4.1l-1.07-3.82a54.58,54.58,0,0,0,3.76-7.62c5.25-11.83,15-33.86,33-40.88a3.35,3.35,0,0,0,2-2.12c2.88-9.36,12.26-13.2,14.11-13.87a3.32,3.32,0,1,0-2.27-6.25c-6.49,2.36-14.35,7.94-17.67,16.65-19.57,8.53-29.7,31.37-35.21,43.78-.46,1-.93,2.11-1.39,3.1-4.17-5.83-8.83-9.2-14.07-13A93.24,93.24,0,0,1,117.91,116c.5-2.46,1-5,1.44-7.62,4-4.67,11.67-13.14,11.75-13.23l.07-.08a13.28,13.28,0,0,0,3.12-9.76c0-.1,0-.21,0-.32l-2.81-15.46a10,10,0,0,0-5-7.68L110,52.56a21.6,21.6,0,0,0-13.19-2.68l-4,.47A15.55,15.55,0,0,0,79.92,60.94l-8.54,26.5A13.21,13.21,0,0,0,72.48,98l4.7,8.22a13,13,0,0,0,3.74,4.15,19.16,19.16,0,0,1,3.41,3.52,37.34,37.34,0,0,1-3.89,2.84,76.34,76.34,0,0,0-16.51,13.63c-3.69-10.2-10.24-21.36-21.79-26.69a31.19,31.19,0,0,0-13.36-2.91c-3.5-8.86-9.42-12.42-13.95-13.83a21.32,21.32,0,0,0-10.15-.67,3.32,3.32,0,1,0,1.37,6.5,15.33,15.33,0,0,1,7.05.59C17.94,95,21.37,99,23.31,105.24a3.35,3.35,0,0,0,3.74,2.3c.93-.16,22.55-3.29,32.05,29.53-3.13,5.51-2.82,12.38-2.8,12.69a3.32,3.32,0,0,0,3.32,3.14h.18a3.32,3.32,0,0,0,3.14-3.5c0-.06-.25-6.15,2.46-9.86v0a3.23,3.23,0,0,0,.27-.44c0-.07,4.22-7.78,18.32-16.73,13.34-8.47,15.41-18.95,15.59-23.77l.82.09a9.83,9.83,0,0,0,9.86-5.34L119.5,75A9.76,9.76,0,0,0,119,65.3l4.16,2.35a3.35,3.35,0,0,1,1.68,2.63c0,.1,0,.21,0,.32L127.68,86a6.67,6.67,0,0,1-1.55,4.73c-.71.78-8.67,9.59-12.44,14a3.41,3.41,0,0,0-.74,1.6c-6.37,37.54-18.14,56.57-26.88,65.92-6.93,7.41-13.57,10.43-16.62,11.14-5.69-1.69-43.29-13.55-57.28-34.35A3.3,3.3,0,0,0,10,147.67a3.34,3.34,0,0,0-2.54.61l-6.09,4.51a3.32,3.32,0,1,0,4,5.34l3.4-2.52c17.73,22.6,57.93,34,59.7,34.46a3.35,3.35,0,0,0,.89.12l.44,0c1.17-.16,23.08-3.65,38.78-42.19,7.69,10.12,15.22,19.29,21.5,26.2,12.93,14.2,18,16,20.9,16,5.37,0,11.76-7.4,24.57-22.8,6.82-8.21,14.49-17.43,22.45-25.47l8.35,6a3.32,3.32,0,1,0,3.88-5.39ZM113.57,72l-9.23,18.34a3.19,3.19,0,0,1-3.19,1.72L88.84,90.68a3.33,3.33,0,0,0-.74,6.61l4.87.54a18.93,18.93,0,0,1-4,11.22A24.35,24.35,0,0,0,84.78,105a6.43,6.43,0,0,1-1.83-2l-4.7-8.22a6.58,6.58,0,0,1-.54-5.24L86.25,63a8.75,8.75,0,0,1,7.3-6l4-.46a15,15,0,0,1,7,.86s.06.11.11.17l8.68,11.24A3.19,3.19,0,0,1,113.57,72Z"/><path class="cls-1" d="M20.93,134.87a3.26,3.26,0,0,0,2.13.78,3.32,3.32,0,0,0,2.15-5.86c-2.31-1.95-5.56-8.35-7.07-11.92A3.32,3.32,0,1,0,12,120.44C12.48,121.54,16.64,131.27,20.93,134.87Z"/><path class="cls-1" d="M73.77,42.8a3.32,3.32,0,1,0,4.7-4.7L62.18,21.81a3.32,3.32,0,0,0-4.7,4.7Z"/><path class="cls-1" d="M129.07,42.52a3.29,3.29,0,0,0,2.35-1L148,24.94a3.32,3.32,0,0,0-4.7-4.7L126.72,36.85a3.32,3.32,0,0,0,2.35,5.67Z"/><path class="cls-1" d="M102,29.69a3.33,3.33,0,0,0,3.32-3.33v-23a3.32,3.32,0,1,0-6.64,0v23A3.32,3.32,0,0,0,102,29.69Z"/></g></g></svg>