<svg xmlns="http://www.w3.org/2000/svg" viewBox="0 0 193.21 181.81"><defs><style>.cls-1{fill:#fff;}</style></defs><title>ea</title><g id="Layer_2" data-name="Layer 2"><g id="Layer_1-2" data-name="Layer 1"><path class="cls-1" d="M72.27,121.15c-3.07-3.71-6.49-9.45-6.89-12.63l-.54-4.25A25.83,25.83,0,0,0,62.31,96l-.53-1A19.91,19.91,0,0,1,59.69,86V68.44A28.57,28.57,0,0,1,88.23,39.9a28,28,0,0,1,4.85.41,3,3,0,0,0,1-6,34.64,34.64,0,0,0-40.5,34.13V86a26,26,0,0,0,2.73,11.59l.53,1.05A19.77,19.77,0,0,1,58.8,105l.54,4.25c.63,4.92,4.69,11.2,7.48,14.78a3.59,3.59,0,0,0-.11.57l-1.55,18.07-46.74,15C10.51,160.24,0,165.14,0,178.76a3,3,0,1,0,6.08,0c0-7.63,4.11-12,14.19-15.23L69,147.88a3,3,0,0,0,2.1-2.63l1.72-20.09a2.8,2.8,0,0,0-.06-.87A3,3,0,0,0,72.27,121.15Z"/><path class="cls-1" d="M193.21,47.07a47.07,47.07,0,1,0-74.42,38.28,3,3,0,0,0-2.19,2.53h0c-28.94-3.72-33-15.59-33.22-16.25a2.92,2.92,0,0,0-1.67-2.14,3,3,0,0,0-2.79.17L67.06,76.35a3,3,0,0,0,3,5.3l9-5.07a24.16,24.16,0,0,0,5.45,6.11c6.77,5.55,17,9.27,30.34,11.1-.23.49-.48,1-.76,1.46a25.76,25.76,0,0,0-3.32,9.78l-.44,3.49c-.45,3.47-4.13,9.49-7.28,13.08a3,3,0,0,0-.68,2.67,3.25,3.25,0,0,0-.07.89L104,145.25a3,3,0,0,0,2.1,2.63l48.69,15.65c10.33,3.28,15.2,5.64,15.2,13.17a3,3,0,0,0,6.09,0c0-12.81-10.34-16.08-19.44-19l-46.75-15-1.55-18a52.76,52.76,0,0,0,4.47-6.43,25.08,25.08,0,0,0,3.52-9l.45-3.49a19.72,19.72,0,0,1,2.54-7.48,25.65,25.65,0,0,0,3.3-9.64,3.08,3.08,0,0,0,0-.86,47,47,0,0,0,70.6-40.75Zm-88.06,0a41,41,0,1,1,41,41A41,41,0,0,1,105.15,47.07Z"/><path class="cls-1" d="M157.52,44.73a3,3,0,0,0-2.66-1.57H139.31l14.14-22.09a3,3,0,0,0-5.12-3.28L131.18,44.56a3,3,0,0,0,2.56,4.68h15.62L135.88,70.75a3,3,0,0,0,1,4.19,3,3,0,0,0,1.62.47A3.05,3.05,0,0,0,141,74l16.4-26.16A3,3,0,0,0,157.52,44.73Z"/></g></g></svg>