<svg xmlns="http://www.w3.org/2000/svg" viewBox="0 0 176.71 199.1"><defs><style>.cls-1{fill:#fff;}</style></defs><title>fp</title><g id="Layer_2" data-name="Layer 2"><g id="Layer_1-2" data-name="Layer 1"><path class="cls-1" d="M98.3,33A16.22,16.22,0,1,0,82.08,16.76,16.23,16.23,0,0,0,98.3,33Zm0-26.77A10.56,10.56,0,1,1,87.74,16.76,10.56,10.56,0,0,1,98.3,6.21Z"/><path class="cls-1" d="M85.87,51.76a2.83,2.83,0,0,0-5.56-1.07l-3.7,19.16a8.07,8.07,0,0,0,6.3,9.42l5.92,1.2a2.76,2.76,0,0,0,.57.06,2.83,2.83,0,0,0,.56-5.6L84,73.72a2.39,2.39,0,0,1-1.87-2.79Z"/><path class="cls-1" d="M47.56,87a13.06,13.06,0,0,0,13,13h75.27a13,13,0,1,0-2.09-25.93l-1.51.25-2.52-22.64a21.81,21.81,0,0,0-10.37-16.18L112,31.09a2.83,2.83,0,1,0-2.91,4.85l7.39,4.44a16.09,16.09,0,0,1,7.67,11.95l2.69,24.29a5,5,0,0,1-4.19,5.48l-24.1,3.72a1.78,1.78,0,0,1-.61,0,2.16,2.16,0,0,0-.43-.14,1.81,1.81,0,0,1-1-1.25,1.77,1.77,0,0,1,1.26-2L114,78.63a8.13,8.13,0,0,0,6.19-9.56l-3.67-18.4A2.83,2.83,0,0,0,111,51.78l3.67,18.4a2.51,2.51,0,0,1-1.91,2.94L96.48,76.87l-.08,0a7.42,7.42,0,0,0-5.53,7.74L74.24,82.09A5,5,0,0,1,70,76.61l2.7-24.28A16.11,16.11,0,0,1,80.4,40.38l7.4-4.44a2.83,2.83,0,0,0-2.91-4.85l-7.4,4.44A21.82,21.82,0,0,0,67.11,51.71l-2.52,22.7L62.7,74.1A13,13,0,0,0,47.56,87Zm8.26-5.63a7.38,7.38,0,0,1,6-1.66l3,.49a10.59,10.59,0,0,0,8.6,7.5l22.54,3.44a7.23,7.23,0,0,0,2.32.38,8.89,8.89,0,0,0,1.15-.08l24.1-3.73a10.62,10.62,0,0,0,8.62-7.58l2.58-.42a7.39,7.39,0,1,1,1.18,14.68H60.61a7.39,7.39,0,0,1-4.79-13Z"/><path class="cls-1" d="M138.54,102.18a2.83,2.83,0,0,0-.28,4,52.68,52.68,0,1,1-79.56.11,2.83,2.83,0,1,0-4.28-3.7,58.34,58.34,0,1,0,88.11-.13A2.83,2.83,0,0,0,138.54,102.18Z"/><path class="cls-1" d="M95.62,185.54H101a4.9,4.9,0,0,0,4.87-4.91V175.5c8.32-2.88,13.59-9.9,13.59-18.4,0-5.84-1.7-14.29-16.33-20.26-7.61-3.15-7.61-4.32-7.61-5.25,0-2.16,2.63-2.48,4.19-2.48a15.91,15.91,0,0,1,8.39,2.27,4.9,4.9,0,0,0,7-2.52l2.15-5.67a4.9,4.9,0,0,0-2.13-6,27,27,0,0,0-8.76-3.17v-3.93a4.8,4.8,0,0,0-4.86-4.83H96.22a4.68,4.68,0,0,0-4.73,4.83V115c-8.11,2.73-13.06,9.32-13.06,17.66,0,11.16,8.71,16.08,17.19,19.41,6.62,2.68,6.62,4.62,6.62,5.67,0,2.59-2.87,3.5-5.32,3.5a17.81,17.81,0,0,1-9.65-2.86,4.91,4.91,0,0,0-7.35,2.42l-2.06,5.76a4.84,4.84,0,0,0,1.64,5.65,27.24,27.24,0,0,0,11,4.23v4.23A5.11,5.11,0,0,0,95.62,185.54Zm-12.26-17.6,1.57-4.39a23.78,23.78,0,0,0,12,3.31c6.46,0,11-3.77,11-9.16,0-4.77-3-8-10.18-10.93-8.18-3.21-13.63-6.84-13.63-14.15,0-6.39,4.07-11.16,10.88-12.77a2.83,2.83,0,0,0,2.18-2.76v-6.15h3.6v5.56a2.82,2.82,0,0,0,2.55,2.81,22.89,22.89,0,0,1,8.48,2.49L110.17,126a21.32,21.32,0,0,0-10.43-2.59c-6.8,0-9.85,4.09-9.85,8.14,0,5,3.58,7.37,11.11,10.48h0c12.82,5.22,12.82,11.84,12.82,15,0,6.51-4.49,11.83-11.44,13.54a2.84,2.84,0,0,0-2.15,2.75v6.49H96.12v-6a2.83,2.83,0,0,0-2.57-2.82A24,24,0,0,1,83.36,167.94Z"/><path class="cls-1" d="M41.7,8.18a2.83,2.83,0,0,0,2.83-2.82V2.83a2.83,2.83,0,1,0-5.66,0V5.36A2.83,2.83,0,0,0,41.7,8.18Z"/><path class="cls-1" d="M44.53,22.68V20.15a2.83,2.83,0,0,0-5.66,0v2.53a2.83,2.83,0,1,0,5.66,0Z"/><path class="cls-1" d="M34.3,9.92H31.77a2.83,2.83,0,0,0,0,5.66H34.3a2.83,2.83,0,1,0,0-5.66Z"/><path class="cls-1" d="M49.1,15.58h2.52a2.83,2.83,0,1,0,0-5.66H49.1a2.83,2.83,0,1,0,0,5.66Z"/><path class="cls-1" d="M12.75,47.14A2.83,2.83,0,0,0,9.92,50V52.5a2.83,2.83,0,0,0,5.66,0V50A2.83,2.83,0,0,0,12.75,47.14Z"/><path class="cls-1" d="M12.75,64.46a2.83,2.83,0,0,0-2.83,2.83v2.53a2.83,2.83,0,0,0,5.66,0V67.29A2.83,2.83,0,0,0,12.75,64.46Z"/><path class="cls-1" d="M5.36,57.06H2.83a2.83,2.83,0,1,0,0,5.66H5.36a2.83,2.83,0,0,0,0-5.66Z"/><path class="cls-1" d="M22.68,57.06H20.15a2.83,2.83,0,1,0,0,5.66h2.53a2.83,2.83,0,1,0,0-5.66Z"/><path class="cls-1" d="M164,25.58a2.83,2.83,0,0,0,2.83-2.83V20.23a2.83,2.83,0,1,0-5.66,0v2.52A2.83,2.83,0,0,0,164,25.58Z"/><path class="cls-1" d="M166.79,40.07V37.55a2.83,2.83,0,1,0-5.66,0v2.52a2.83,2.83,0,1,0,5.66,0Z"/><path class="cls-1" d="M156.56,27.32H154A2.83,2.83,0,1,0,154,33h2.52a2.83,2.83,0,0,0,0-5.66Z"/><path class="cls-1" d="M173.89,27.32h-2.53a2.83,2.83,0,0,0,0,5.66h2.53a2.83,2.83,0,0,0,0-5.66Z"/><path class="cls-1" d="M167.58,69.82a3.62,3.62,0,1,0,3.62,3.62A3.62,3.62,0,0,0,167.58,69.82Z"/><path class="cls-1" d="M47.79,53.39a3.62,3.62,0,1,0-3.62-3.62A3.62,3.62,0,0,0,47.79,53.39Z"/></g></g></svg>