<svg xmlns="http://www.w3.org/2000/svg" viewBox="0 0 196.96 196.25"><defs><style>.cls-1{fill:#fff;}</style></defs><title>iv</title><g id="Layer_2" data-name="Layer 2"><g id="Layer_1-2" data-name="Layer 1"><path class="cls-1" d="M91.76,122.23A3,3,0,0,0,88.51,125a11.85,11.85,0,0,1-20.08,7.52,3,3,0,0,0-4.21,4.32,17.94,17.94,0,0,0,11,5c.5,0,1,.06,1.48.06a17.87,17.87,0,0,0,13.07-5.71,8.39,8.39,0,0,1,5.36,5.93,3,3,0,0,0,2.94,2.37,3,3,0,0,0,.66-.08,3,3,0,0,0,2.29-3.6,14.13,14.13,0,0,0-7.92-9.74,17.68,17.68,0,0,0,1.41-5.59A3,3,0,0,0,91.76,122.23Z"/><path class="cls-1" d="M60.55,83.92a11.87,11.87,0,0,1-7.72,2.15,3,3,0,1,0-.45,6c.44,0,.88,0,1.32,0A17.84,17.84,0,0,0,69.8,82a17.91,17.91,0,0,0,7.68,2.47c.49,0,1,.06,1.48.06h.23c5.53,6.63,1.94,13,1.76,13.3A3,3,0,0,0,82,102a3.14,3.14,0,0,0,1.57.44A3,3,0,0,0,86.11,101a17.07,17.07,0,0,0,2.1-6.67,17.49,17.49,0,0,0-2.54-11,18.1,18.1,0,0,0,6-4A3,3,0,0,0,87.34,75,11.8,11.8,0,0,1,78,78.49a11.93,11.93,0,0,1-6.49-2.59,17.76,17.76,0,0,0-3.18-12,3,3,0,0,0-4.93,3.48A11.86,11.86,0,0,1,60.55,83.92Z"/><path class="cls-1" d="M173.66,121.42a3,3,0,0,0-3.31,2.7A20.53,20.53,0,0,1,133,133.61a3,3,0,0,0-5,3.4,26.4,26.4,0,0,0,17,11.12,26.87,26.87,0,0,0,5,.47,26.28,26.28,0,0,0,7.64-1.14,24.53,24.53,0,0,1-20.18,13.2,3,3,0,0,0,.24,6h.25a33.74,33.74,0,0,0,4.85-.75c.06.05.11.11.17.15s12.25,9.48,12,25.19a3,3,0,0,0,3,3.07h.06a3,3,0,0,0,3-3c.27-14-7.4-23.52-11.65-27.72a30.22,30.22,0,0,0,11.61-10,35.68,35.68,0,0,0,5-10.37,26.53,26.53,0,0,0,10.5-18.54A3,3,0,0,0,173.66,121.42Z"/><path class="cls-1" d="M120.58,167.15c-6.69-1.75-10-4.87-11.71-7.3h0A60.52,60.52,0,0,0,124,157.94a3,3,0,1,0-1.49-5.84A52.62,52.62,0,0,1,92,151a3,3,0,0,0-3.61,1c-.08.07-.17.13-.25.21a24.65,24.65,0,0,1-17.19,6.72c-12.66,0-23-8.93-23-19.91a18.39,18.39,0,0,1,6-13.39,17.94,17.94,0,0,0,14.54-12.47A51.58,51.58,0,0,0,81.7,116.2a45.66,45.66,0,0,0,21.43-3,14.21,14.21,0,0,1,3.42,12.32,3,3,0,0,0,2.31,3.59,3.55,3.55,0,0,0,.64.06,3,3,0,0,0,3-2.38,19.88,19.88,0,0,0-3.74-16.27,49.68,49.68,0,0,0,8.28-5.91,3,3,0,1,0-4-4.54c-8.84,7.76-19.11,11.16-30.5,10.12a43.73,43.73,0,0,1-14.83-4,3,3,0,0,0-4.43,2.47,11.85,11.85,0,1,1-23.65-1.51,3,3,0,0,0-6-.38,17.77,17.77,0,0,0,2,9.36,11.62,11.62,0,0,1-11.76-2.52,3,3,0,0,0-4.41,4.11,16.93,16.93,0,0,0,5.84,3.84,17.24,17.24,0,0,0,6.47,1.26,19.18,19.18,0,0,0,7.7-1.69,17.75,17.75,0,0,0,7,4A23.85,23.85,0,0,0,41.94,139a22.74,22.74,0,0,0,.31,3.71c-1.83.17-3.62.28-5.32.28C24,143,14.72,138.1,9.75,128.65c-5.26-10-4.21-22.63-1.08-29.24.14.14.26.3.41.44a3,3,0,0,0,4.24-4.29A11.85,11.85,0,0,1,30,78.73a3,3,0,0,0,4.24-4.29,17.74,17.74,0,0,0-11.33-5.11,19.73,19.73,0,0,1,6-10.67c3.41-2.95,8-4.48,13.74-4.59-.3.53-.46.87-.48.92a3,3,0,0,0,1.48,4,3,3,0,0,0,1.26.27,3,3,0,0,0,2.75-1.76,22.6,22.6,0,0,1,6.49-7.42,3,3,0,1,0-3.65-4.81,30.67,30.67,0,0,0-3.31,2.92c-9.31-.8-16.78,1.19-22.23,5.91C19,59.32,17.2,66.42,16.67,70A17.87,17.87,0,0,0,3.78,87.23,18,18,0,0,0,5,93.71C2.35,97.45.54,103.26.1,109.64a41.39,41.39,0,0,0,4.31,21.82,31,31,0,0,0,14.25,13.81A41.79,41.79,0,0,0,36.9,149a63.08,63.08,0,0,0,7.12-.42c4.28,9.56,14.73,16.33,26.92,16.33a30.89,30.89,0,0,0,20.63-7.71,53.94,53.94,0,0,0,10.35,2.2c1.31,3.56,5.32,10.47,17.13,13.56,14.2,3.72,24.45,11.88,26.12,20.8a3,3,0,0,0,3,2.46,2.71,2.71,0,0,0,.56-.05,3,3,0,0,0,2.41-3.52C149,181.48,137,171.46,120.58,167.15Z"/><path class="cls-1" d="M180.6,72.8l5.62-1.41a14.2,14.2,0,1,0-6.93-27.55l-5.62,1.41a8.17,8.17,0,0,1-9-12.11l3-5a14.21,14.21,0,0,0-24.39-14.57l-3,5a8.17,8.17,0,0,1-14.93-2.19l-1.42-5.63a14.21,14.21,0,0,0-27.55,6.94L97.8,23.3a8.17,8.17,0,0,1-12.11,9l-5-3A14.2,14.2,0,1,0,66.13,53.71l5,3a3,3,0,0,0,3.1-5.18l-5-3a8.17,8.17,0,1,1,8.38-14l5,3a14.21,14.21,0,0,0,21.06-15.66l-1.41-5.63a8.17,8.17,0,1,1,15.84-4l1.41,5.62a14.2,14.2,0,0,0,26,3.82l3-5a8.17,8.17,0,0,1,14,8.39l-3,5a14.21,14.21,0,0,0,15.66,21.07l5.62-1.42a8.17,8.17,0,1,1,4,15.84L179.13,67a14.2,14.2,0,0,0-3.83,26l5,3a8.17,8.17,0,0,1-8.38,14l-5-3c-5.31-3.18-11-2.65-17.3,1.63a3,3,0,0,0,3.38,5c5.52-3.73,8.68-2.74,10.83-1.45l5,3a14.2,14.2,0,1,0,14.58-24.38l-5-3a8.17,8.17,0,0,1,2.2-14.93Z"/><path class="cls-1" d="M152.3,72.52a25.36,25.36,0,0,0-47.86-11.68A20.43,20.43,0,0,0,93,59.77a3,3,0,1,0,1.26,5.9c.45-.09,11.1-2.23,14.79,8.48a3,3,0,0,0,3,2c.13,0,13.31-.73,21.43,7.17,4.52,4.39,6.66,10.74,6.38,18.88a3,3,0,0,0,2.91,3.12h.11a3,3,0,0,0,3-2.91,37.5,37.5,0,0,0-1.31-11.76A25.36,25.36,0,0,0,152.3,72.52ZM137.74,79c-7.88-7.67-19.07-8.78-23.79-8.89a18.39,18.39,0,0,0-4.36-6.06A19.3,19.3,0,1,1,142,84.54,25.12,25.12,0,0,0,137.74,79Z"/></g></g></svg>