<svg xmlns="http://www.w3.org/2000/svg" viewBox="0 0 36.99 37.07"><defs><style>.cls-1{fill:#fff;}</style></defs><title>mc</title><g id="Layer_2" data-name="Layer 2"><g id="Layer_1-2" data-name="Layer 1"><path class="cls-1" d="M36.85,24.46a.7.7,0,0,0-.56-.29c-1.89,0-3.18-1-4.66-2.05-.32-.24-.64-.48-1-.71a9.21,9.21,0,0,0-5.53-1.91c-1,0-1.88,0-2.56,0H17.33a2.08,2.08,0,1,0,0,4.15h4.85a1.39,1.39,0,0,1,.46,2.54l-1.8.48c-.62.14-1.25.31-1.85.48l-.13,0c-3.36.89-4.49,1.18-4.82,1.26a2.3,2.3,0,0,1-.39,0L6,23.53l-1.39-1-.08-.05-.22-.13a3.38,3.38,0,0,0-.44-.18l-.37-.08a2.44,2.44,0,0,0-.9,0A2.91,2.91,0,0,0,.85,27.06l0,0a2.83,2.83,0,0,0,.66.49l12.62,9.15a.85.85,0,0,0,.19.1l.1,0h0a3.25,3.25,0,0,0,1.09.19,3.66,3.66,0,0,0,.65-.06h0l.06,0c8-2,13.72-3.48,16.56-4.18l.08,0,.25-.09a14.35,14.35,0,0,1,3.05-.53.69.69,0,0,0,.7-.69V31s0-.08,0-.12V25A.71.71,0,0,0,36.85,24.46Zm-1.26,6.35a22.29,22.29,0,0,0-2.74.54l-.08,0-.24.09c-2.86.7-8.57,2.14-16.54,4.17h0a1.89,1.89,0,0,1-1-.08L2.32,26.43l-.09-.06a1.47,1.47,0,0,1-.37-.26l0,0a1.53,1.53,0,0,1,1-2.61h.08a1.33,1.33,0,0,1,.45,0l.18,0,.22.09.13.08,0,0,1.35,1,0,0,7.74,5a.67.67,0,0,0,.21.09,3.18,3.18,0,0,0,1,.07l.12,0c.35-.08,2-.51,4.91-1.28l.15,0c.6-.17,1.21-.33,1.82-.48l1.91-.51a.39.39,0,0,0,.15-.06,2.77,2.77,0,0,0-.89-5.16h-5a.7.7,0,0,1,0-1.39h5.25c.69,0,1.52,0,2.54,0a7.84,7.84,0,0,1,4.74,1.67c.32.22.63.45.94.68a9.55,9.55,0,0,0,4.79,2.29v5.25S35.59,30.8,35.59,30.81Z"/><path class="cls-1" d="M23.84.71v0A.7.7,0,0,0,23.18,0h-.07A11.74,11.74,0,0,0,12.24,7.3,9.46,9.46,0,0,0,9.58,2.12L9.43,2l-.06-.06a.71.71,0,0,0-.94,0s0,0,0,0A9.54,9.54,0,0,0,8,15l0,0L3.83,19.29l.72.72,4.22-4.22,0,0a9.54,9.54,0,0,0,13.09-.37l0,0a.72.72,0,0,0,0-1l0,0a9.52,9.52,0,0,0-5.61-2.73A11.67,11.67,0,0,0,23.84.71ZM20.4,14.94a8.16,8.16,0,0,1-10.68-.16l-.1-.08-.06-.06-.11-.09a.91.91,0,0,0-.1-.1l-.19-.21-.11-.12a8.17,8.17,0,0,1-.14-10.7A8.17,8.17,0,0,1,9.55,13.5a.69.69,0,0,0,1,1A8.15,8.15,0,0,1,20.4,14.94Zm-7.63-3.88a10.26,10.26,0,0,1,.16-1.19h0a10.34,10.34,0,0,1,9.5-8.46A10.31,10.31,0,0,1,12.77,11.06Z"/></g></g></svg>