<svg xmlns="http://www.w3.org/2000/svg" viewBox="0 0 29.35 24.15"><defs><style>.cls-1{fill:#fff;}</style></defs><title>moral</title><g id="Layer_2" data-name="Layer 2"><g id="Layer_1-2" data-name="Layer 1"><path class="cls-1" d="M11.82,8.67l1.36-.36c.47-.12,1-.24,1.43-.38l.09,0,3.7-1a1.61,1.61,0,0,1,.22,0l5.83,3.78,1.06.77.08,0,.18.1.36.15.31.07a2.35,2.35,0,0,0,.75,0,2.4,2.4,0,0,0,2.16-2.4,2.38,2.38,0,0,0-.7-1.69l0,0a2.41,2.41,0,0,0-.53-.39L18.38.3a.84.84,0,0,0-.21-.11l-.09,0A2.69,2.69,0,0,0,16.65.05h-.08C10.29,1.67,6,2.75,3.81,3.29l-.07,0-.19.06a11.13,11.13,0,0,1-2.31.4.69.69,0,0,0-.69.7v.34a.41.41,0,0,0,0,.11V9.45A.67.67,0,0,0,.67,10a.7.7,0,0,0,.56.29,5.74,5.74,0,0,1,3.5,1.55l.76.55a7.21,7.21,0,0,0,4.35,1.51c.8,0,1.45,0,2,0h5.42a.91.91,0,0,1,.72.89.89.89,0,0,1-.41.75l-1,.26-.41.1c-.47.12-1,.24-1.42.38l-.1,0c-2.54.67-3.42.9-3.69,1h-.23L4.9,13.43l-1.06-.77-.08-.05-.18-.1-.36-.15a1.55,1.55,0,0,0-.31-.06,1.82,1.82,0,0,0-.74,0A2.39,2.39,0,0,0,0,14.7a2.41,2.41,0,0,0,.7,1.69l0,0a2.46,2.46,0,0,0,.54.39L11,23.86a.66.66,0,0,0,.19.09l.07,0h0a2.63,2.63,0,0,0,.9.16,3,3,0,0,0,.57-.06h0c2.15-.55,9.44-2.41,12.75-3.22l.08,0,.18-.06a11.13,11.13,0,0,1,2.31-.4.69.69,0,0,0,.69-.7v-.34a.41.41,0,0,0,0-.11V14.7a.69.69,0,0,0-.68-.8,5.74,5.74,0,0,1-3.5-1.55l-.76-.55a7.21,7.21,0,0,0-4.35-1.51c-.83,0-1.47,0-2,0H12.12a.9.9,0,0,1-.3-1.64Zm5.74,3.78s0,0,0-.06a1.72,1.72,0,0,0,0-.64V11.7l2,0a5.92,5.92,0,0,1,3.56,1.25c.25.18.49.35.72.53a7.8,7.8,0,0,0,3.63,1.78V19a17.84,17.84,0,0,0-2,.4l-.07,0-.19.07c-3.33.82-10.58,2.67-12.72,3.21h0a1.37,1.37,0,0,1-.69,0l-9.7-7L2,15.61a1.25,1.25,0,0,1-.24-.18h0a1,1,0,0,1-.3-.72,1,1,0,0,1,.94-1h.08a.76.76,0,0,1,.3,0l.11,0,.14.06L3,13.8h0l1,.75,0,0,6,3.86a.62.62,0,0,0,.22.1,3.09,3.09,0,0,0,.78.06l.12,0,3.8-1,.11,0c.46-.14.93-.26,1.4-.37l.41-.11L18,16.8l.16-.07a2.29,2.29,0,0,0-.59-4.24A.06.06,0,0,0,17.56,12.45ZM12,11.69h3.9a.37.37,0,0,1,.36.37.37.37,0,0,1-.37.38H11.79l-1.95,0a5.94,5.94,0,0,1-3.56-1.25l-.72-.53A7.72,7.72,0,0,0,1.94,8.91V5.12a17.84,17.84,0,0,0,2-.4L4,4.7l.18-.07C6.39,4.09,10.67,3,16.91,1.42h0a1.33,1.33,0,0,1,.66.05l0,0L26.9,8.19l.41.3.09,0a1.44,1.44,0,0,1,.25.18h0a1,1,0,0,1,.31.72,1,1,0,0,1-.94,1H27a.76.76,0,0,1-.3,0l-.12,0-.14-.06-.08,0,0,0-1-.75,0,0-6-3.86a.43.43,0,0,0-.21-.09,2.47,2.47,0,0,0-.79-.06h-.12l-3.79,1-.11,0c-.47.14-.94.26-1.4.37l-1.47.39-.16.07A2.29,2.29,0,0,0,12,11.69Z"/></g></g></svg>