<svg xmlns="http://www.w3.org/2000/svg" viewBox="0 0 176.42 179.76"><defs><style>.cls-1{fill:#fff;}</style></defs><title>rf</title><g id="Layer_2" data-name="Layer 2"><g id="Layer_1-2" data-name="Layer 1"><path class="cls-1" d="M84.82,147H11.93a5.54,5.54,0,0,1-5.53-5.53V11.93A5.54,5.54,0,0,1,11.93,6.4H164a5.54,5.54,0,0,1,5.53,5.53V120.56a3.2,3.2,0,0,0,6.4,0V11.93A11.94,11.94,0,0,0,164,0h-152A11.94,11.94,0,0,0,0,11.93v129.5a11.94,11.94,0,0,0,11.93,11.93H84.82a3.2,3.2,0,0,0,0-6.4Z"/><path class="cls-1" d="M105.73,87.74a3.2,3.2,0,1,0,0-6.4H91.65a3.2,3.2,0,0,0,0,6.4Z"/><path class="cls-1" d="M23.37,87.74h58a3.2,3.2,0,0,0,0-6.4h-58a3.2,3.2,0,0,0,0,6.4Z"/><path class="cls-1" d="M120.24,99.69a3.2,3.2,0,1,0,0,6.4h5.12a3.2,3.2,0,0,0,0-6.4Z"/><path class="cls-1" d="M111.92,102.89a3.21,3.21,0,0,0-3.2-3.2H73.3a3.2,3.2,0,0,0,0,6.4h35.42A3.2,3.2,0,0,0,111.92,102.89Z"/><path class="cls-1" d="M23.37,106.09H63.06a3.2,3.2,0,0,0,0-6.4H23.37a3.2,3.2,0,1,0,0,6.4Z"/><path class="cls-1" d="M23.37,48.74h130a3.2,3.2,0,1,0,0-6.4h-130a3.2,3.2,0,0,0,0,6.4Z"/><path class="cls-1" d="M23.37,28.74h130a3.2,3.2,0,1,0,0-6.4h-130a3.2,3.2,0,0,0,0,6.4Z"/><path class="cls-1" d="M120.24,60.69a3.2,3.2,0,1,0,0,6.4h5.12a3.2,3.2,0,0,0,0-6.4Z"/><path class="cls-1" d="M111.92,63.89a3.21,3.21,0,0,0-3.2-3.2H73.3a3.2,3.2,0,0,0,0,6.4h35.42A3.2,3.2,0,0,0,111.92,63.89Z"/><path class="cls-1" d="M23.37,67.09H63.06a3.2,3.2,0,0,0,0-6.4H23.37a3.2,3.2,0,1,0,0,6.4Z"/><path class="cls-1" d="M121.73,122.52a3.2,3.2,0,0,0-3.2-3.2h-26a3.2,3.2,0,0,0,0,6.4h26A3.2,3.2,0,0,0,121.73,122.52Z"/><path class="cls-1" d="M23.37,125.72H82.26a3.2,3.2,0,0,0,0-6.4H23.37a3.2,3.2,0,1,0,0,6.4Z"/><path class="cls-1" d="M173.37,133.24a10.33,10.33,0,0,0-7.36-3.05h-9.18a24.56,24.56,0,0,0,4.19-9.86,75.14,75.14,0,0,0,.85-8.11,9.19,9.19,0,0,0-2.5-6.74,9.09,9.09,0,0,0-15.55,4.69c-1.11,6.22-3,10.68-5.23,12.26a37.34,37.34,0,0,1-3.32,2.09c-2,1.18-4,2.29-4.61,5.17s-1.87,6.1-4.4,7.88a1.73,1.73,0,0,0-.17-.21,5.36,5.36,0,0,0-4-1.72l-8.17.15a5.39,5.39,0,0,0-4,1.82,5.59,5.59,0,0,0-1.19,2.19H97.62a3.2,3.2,0,0,0,0,6.4h10.94l.28,23.47H97.62a3.21,3.21,0,0,0,0,6.41h11.65a5.74,5.74,0,0,0,1.19,2,5.44,5.44,0,0,0,3.93,1.72h.09l8.16-.15a5.44,5.44,0,0,0,4-1.83,5.55,5.55,0,0,0,1.05-1.74,65.65,65.65,0,0,1,8,.75,41,41,0,0,0,7.18.61H166A10.42,10.42,0,0,0,176.42,167V140.6A10.32,10.32,0,0,0,173.37,133.24Zm-58.08,40.1-.38-31.17,6.35-.11.38,31.17Zm21.48-2.85a71.19,71.19,0,0,0-8.77-.84l-.31-25.56c4.55-2,7.79-6.55,9.22-13v0a13.2,13.2,0,0,1,1.56-1,45.09,45.09,0,0,0,3.82-2.41c3.74-2.65,6.37-8.16,7.83-16.36a2.7,2.7,0,0,1,2.66-2.24,2.7,2.7,0,0,1,2.69,2.85,65.17,65.17,0,0,1-.77,7.41c-1,6.41-6.9,11.61-7,11.66a3.21,3.21,0,0,0-1,3v14.92a12.27,12.27,0,0,1-7.6,11.38l-2,.85a3.2,3.2,0,0,0,1.22,6.15,3.32,3.32,0,0,0,1.23-.24l2-.85a18.68,18.68,0,0,0,8.59-7.19v7.26a11.42,11.42,0,0,0,1,4.73h-8.34A35.09,35.09,0,0,1,136.77,170.49ZM170,167a4,4,0,0,1-4,4h-6.1a5,5,0,0,1-3.36-4.73v-9.86a3.2,3.2,0,0,0-3.2-3.2,2.88,2.88,0,0,0-.78.11,18.48,18.48,0,0,0,.53-4.41V136.59H166a4,4,0,0,1,4,4Z"/></g></g></svg>