<svg xmlns="http://www.w3.org/2000/svg" viewBox="0 0 187.2 178.24"><defs><style>.cls-1{fill:#fff;}</style></defs><title>rf2</title><g id="Layer_2" data-name="Layer 2"><g id="Layer_1-2" data-name="Layer 1"><path class="cls-1" d="M181.13,73a20.62,20.62,0,0,0-14.66-6.07H134.8c5.38-6.1,13-16.67,15-29.27a176.55,176.55,0,0,0,2-19.21A17.54,17.54,0,0,0,117,14.51c-2.93,16.51-8.11,28.13-14.57,32.71-3.38,2.4-6.17,4-8.41,5.31-4.61,2.65-7.93,4.57-9,9.6C81.61,77.57,74.42,83.9,68.18,86.4a8.82,8.82,0,0,0-8.27-6.22h-.12l-25.59.35A8.46,8.46,0,0,0,28,83.44a9.51,9.51,0,0,0-2.38,6.48v.63H3.2a3.2,3.2,0,1,0,0,6.4H25.66l.8,65.72H3.2a3.2,3.2,0,0,0,0,6.4H26.54v0a9,9,0,0,0,8.76,9.15h.12L61,177.89a9,9,0,0,0,8.61-8.81,183.69,183.69,0,0,1,23.88,2,97.16,97.16,0,0,0,16.65,1.4h56.32a20.75,20.75,0,0,0,20.73-20.72V87.64A20.62,20.62,0,0,0,181.13,73Zm-120.2,98.5-25.6.35A2.65,2.65,0,0,1,32.94,169L32,89.84a3.16,3.16,0,0,1,.76-2.15,2.16,2.16,0,0,1,1.56-.76l25.59-.35h0a2.66,2.66,0,0,1,2.37,2.83l1,79.17A2.67,2.67,0,0,1,60.93,171.49Zm119.86-19.7a14.33,14.33,0,0,1-14.32,14.32H150.82a16.83,16.83,0,0,1-11.92-16.06v-24a3.2,3.2,0,0,0-6.4,0v24A23.18,23.18,0,0,0,139,166.11H110.15a90.26,90.26,0,0,1-15.54-1.31,190.35,190.35,0,0,0-25-2.13L68.72,93c11.14-3.57,19.13-14,22.55-29.47.48-2.19,1.64-2.93,6-5.44a103.74,103.74,0,0,0,8.92-5.62c10.06-7.14,14.89-24,17.17-36.82a11.14,11.14,0,0,1,11-9.23,11.16,11.16,0,0,1,11.13,11.73,171.42,171.42,0,0,1-1.93,18.51c-2.78,17.28-18.28,30.94-18.43,31.07a3.19,3.19,0,0,0-1,3.34v36.8a34.44,34.44,0,0,1-21.29,31.89l-5,2A3.2,3.2,0,0,0,99.11,148a3.1,3.1,0,0,0,1.22-.25l5-2a40.8,40.8,0,0,0,25.24-37.8V73.33h35.95a14.32,14.32,0,0,1,14.32,14.32Z"/><path class="cls-1" d="M47.61,144.5a10.08,10.08,0,1,0,10.08,10.08A10.09,10.09,0,0,0,47.61,144.5Zm0,13.76a3.68,3.68,0,1,1,3.68-3.68A3.68,3.68,0,0,1,47.61,158.26Z"/></g></g></svg>