<svg xmlns="http://www.w3.org/2000/svg" viewBox="0 0 150.92 208.74"><defs><style>.cls-1{fill:#fff;}</style></defs><title>trust</title><g id="Layer_2" data-name="Layer 2"><g id="Layer_1-2" data-name="Layer 1"><path class="cls-1" d="M131.46,38.93A19.47,19.47,0,1,0,112,19.47,19.48,19.48,0,0,0,131.46,38.93Zm0-32.41a12.95,12.95,0,1,1-13,13A13,13,0,0,1,131.46,6.52Z"/><path class="cls-1" d="M149,45.73l-1.71-5.09a3.26,3.26,0,0,0-6.18,2.08l1.71,5.09a19.68,19.68,0,0,1-1.91,16.63L125.24,89.85a3.23,3.23,0,0,0-.22.41A5.33,5.33,0,0,1,123,92.67L89.58,109.32a2.8,2.8,0,0,0-.5.31A3.86,3.86,0,0,1,83.9,104l34.62-20.34a3.16,3.16,0,0,0,1.3-1.43L130,60.34a3.26,3.26,0,0,0-5.91-2.75l-2.93,6.29-.48-3.94a14.65,14.65,0,0,1,2.26-9.75L126,45.51A3.26,3.26,0,1,0,120.51,42l-3.05,4.68a21.14,21.14,0,0,0-3.27,14.11l1.75,14.32-1.6,3.44-34.1,20a3.43,3.43,0,0,0-.58.42A10.38,10.38,0,0,0,92.74,115l23.11-11.53V205.2a3.26,3.26,0,0,0,6.52,0V100.44c0-.06,0-.12,0-.19L126,98.44l.22-.12a11.85,11.85,0,0,0,4.69-5.22l12.67-20.53.29,35.89L130.17,205a3.26,3.26,0,0,0,2.77,3.68,2.45,2.45,0,0,0,.46,0,3.27,3.27,0,0,0,3.23-2.81l13.72-96.79a2.7,2.7,0,0,0,0-.49l-.41-49a3.36,3.36,0,0,0-.06-.63A26.19,26.19,0,0,0,149,45.73Z"/><path class="cls-1" d="M19.47,38.93A19.47,19.47,0,1,0,0,19.47,19.48,19.48,0,0,0,19.47,38.93Zm0-32.41a12.95,12.95,0,1,1-12.95,13A13,13,0,0,1,19.47,6.52Z"/><path class="cls-1" d="M71.26,99a3.43,3.43,0,0,0-.58-.42l-34.1-20L35,75.06l1.75-14.32a21.09,21.09,0,0,0-3.27-14.11L30.41,42A3.26,3.26,0,1,0,25,45.51L28,50.19a14.59,14.59,0,0,1,2.26,9.75l-.48,3.94-2.92-6.29a3.26,3.26,0,0,0-5.92,2.75L31.1,82.18a3.22,3.22,0,0,0,1.3,1.43L67,104a3.86,3.86,0,0,1-5.17,5.68,3.3,3.3,0,0,0-.51-.31L28,92.67a5.39,5.39,0,0,1-2.07-2.41,3.17,3.17,0,0,0-.21-.41L10,64.44A19.68,19.68,0,0,1,8.08,47.81L9.8,42.72a3.27,3.27,0,0,0-6.19-2.08L1.9,45.73A26.18,26.18,0,0,0,1,59a3.38,3.38,0,0,0-.07.63l-.4,49a2.69,2.69,0,0,0,0,.49l13.72,96.79a3.28,3.28,0,0,0,3.23,2.81,2.38,2.38,0,0,0,.46,0A3.26,3.26,0,0,0,20.75,205L7.06,108.46l.29-35.89L20,93.1a11.83,11.83,0,0,0,4.68,5.22l.22.12,3.57,1.78c0,.07,0,.15,0,.22V205.2a3.26,3.26,0,0,0,6.52,0V103.46L58.19,115A10.38,10.38,0,0,0,71.26,99Z"/><path class="cls-1" d="M74.77,75.88A3.26,3.26,0,0,0,78,72.62V58.71a3.26,3.26,0,0,0-6.52,0V72.62A3.26,3.26,0,0,0,74.77,75.88Z"/><path class="cls-1" d="M85.46,82.21A3.25,3.25,0,0,0,90,81.49l7.52-10.33a3.26,3.26,0,0,0-5.27-3.84L84.74,77.66A3.27,3.27,0,0,0,85.46,82.21Z"/><path class="cls-1" d="M59.66,81.49a3.26,3.26,0,1,0,5.27-3.83L57.41,67.32a3.26,3.26,0,0,0-5.27,3.84Z"/><path class="cls-1" d="M74.77,131.09a3.26,3.26,0,0,0-3.26,3.26v13.91a3.26,3.26,0,0,0,6.52,0V134.35A3.26,3.26,0,0,0,74.77,131.09Z"/><path class="cls-1" d="M64.22,124.76a3.27,3.27,0,0,0-4.56.71l-7.52,10.34a3.26,3.26,0,1,0,5.27,3.83l7.52-10.33A3.26,3.26,0,0,0,64.22,124.76Z"/><path class="cls-1" d="M90,125.47a3.26,3.26,0,0,0-5.28,3.84l7.53,10.33a3.26,3.26,0,0,0,5.27-3.83Z"/></g></g></svg>