<svg xmlns="http://www.w3.org/2000/svg" viewBox="0 0 30.97 32.02"><defs><style>.cls-1{fill:#fff;}</style></defs><title>tw</title><g id="Layer_2" data-name="Layer 2"><g id="Layer_1-2" data-name="Layer 1"><path class="cls-1" d="M28.51,21.12A13.12,13.12,0,0,0,29,15.91c-.12-2.35-.32-4.7-.54-7a2.59,2.59,0,0,0-2.56-2.51,2.47,2.47,0,0,0-1.34.39c.47-1.66-.16-2.7-2.39-3.5a0,0,0,0,1,0,0A2.42,2.42,0,0,0,20.86.69a2.12,2.12,0,0,0-3.1.54s-.26.33-.27.32A1.92,1.92,0,0,0,16.34.25a2.34,2.34,0,0,0-2.08,0,3.05,3.05,0,0,0-.59.22A1.94,1.94,0,0,0,12.56,1.8s-.26-.3-.27-.31a2.13,2.13,0,0,0-3.12-.42A2.41,2.41,0,0,0,8,3.66l0,0c-2,.82-2.69,1.78-2.35,3.22a2.49,2.49,0,0,0-1.26-.29A2.61,2.61,0,0,0,1.86,9.23c-.12,2.35-.23,4.71-.26,7.06a13.2,13.2,0,0,0,.71,5.18L0,25.32,11.17,32l2.54-4.23a7.09,7.09,0,0,0,1.68-.69,7.45,7.45,0,0,0,2,.77L20.08,32,31,24.87ZM21,5.6c.53-.87,1.07-1.1,1.76-.77s.91.93.41,1.84-.85,1.52-1.28,2.27l-1.51-2.3Zm2.19,4.09c0,.29,0,.61-.07,1,0,0,0,0-.05,0l-.37-.5A2.07,2.07,0,0,1,23.18,9.69ZM18.36,2.54c.47-.78,1-1,1.65-.78.83.34,1,1.12.52,2l-1,1.63L18,3.08C18.14,2.9,18.25,2.72,18.36,2.54ZM13.94,26.3a6.55,6.55,0,0,1-.79.22l-.72,1.21-.18.29-1.68,2.8L1.34,25.28l1.56-2.6.22-.36.56-.93a6,6,0,0,1-.26-.66A5.26,5.26,0,0,1,3.21,20,7.24,7.24,0,0,1,3,18.42c0-3,0-6.05.13-9.07A1.32,1.32,0,0,1,4.36,8a1.24,1.24,0,0,1,1.26.83,1.54,1.54,0,0,0-.52.42A3.19,3.19,0,0,0,4.81,13q3.3,5.24,6.71,10.38A12.89,12.89,0,0,0,13,25.27a12,12,0,0,0,1.08,1Zm4.89,1.75-.18-.29-.77-1.17A6.28,6.28,0,0,1,16.17,26a8.5,8.5,0,0,1-3.24-2.94c-1.19-1.73-2.31-3.51-3.46-5.26S7.05,14.15,5.86,12.3A2,2,0,0,1,5.39,11,1.15,1.15,0,0,1,6,10.11a1.38,1.38,0,0,1,1.19,0,2.79,2.79,0,0,1,.88.95c.56.84,1.11,1.7,1.67,2.55l.82,1.23c.3.44.86,1.65,1.54,1.18s-.2-1.42-.46-1.81L10.79,13C9.55,11,8.29,9.12,7.1,7.14c-.54-.89-.36-1.46.34-1.85s1.23-.15,1.79.7l4.34,6.63c.2.31.33.57.71.7a.49.49,0,0,0,.67-.25,1.08,1.08,0,0,0-.22-1.13L9.62,4.13c-.56-.86-.38-1.65.43-2,.61-.27,1.19,0,1.69.72q2.61,4,5.19,7.94c.28.43.63.79,1.13.44s.21-.77,0-1.16q-2-3-4-6.11a3.37,3.37,0,0,1-.45-.86,1.22,1.22,0,0,1,1-1.54c.73-.13,1.09.31,1.43.83q3.39,5.21,6.82,10.4a1.5,1.5,0,0,0,1,.68c.6,0,.54-.65.58-1.1.09-1.11.14-2.22.25-3.32a1.32,1.32,0,0,1,1.34-1.34A1.31,1.31,0,0,1,27.18,9c.2,3,.4,6,.49,9.06a8.08,8.08,0,0,1-.11,1.56c0,.25-.11.51-.18.76s-.15.45-.24.67l.6.91.23.35,1.66,2.53-9,5.9Z"/><path class="cls-1" d="M21.33,14.16a2.84,2.84,0,0,0-2.41,1.4,2.84,2.84,0,0,0-2.41-1.4,2.88,2.88,0,0,0-2.69,2,3.32,3.32,0,0,0-.17,1,3,3,0,0,0,.16,1,.3.3,0,0,0,0,.1l.44-.21-.44.21.44-.21-.44.21s0,0,0,0a3.1,3.1,0,0,0,.47.84,3,3,0,0,0,.3.32L18.93,24l4.43-4.7A3.12,3.12,0,0,0,24,18.22a3.27,3.27,0,0,0,.17-1A3,3,0,0,0,21.33,14.16ZM23.1,17.9a2.23,2.23,0,0,1-.46.77L18.93,22.6l-3.59-3.79,0,0a1.51,1.51,0,0,1-.21-.23,2,2,0,0,1-.32-.56.61.61,0,0,0,0-.12,2.2,2.2,0,0,1-.1-.68,2.16,2.16,0,0,1,.12-.71,1.82,1.82,0,0,1,3.46-.15.78.78,0,0,0,.71.47.76.76,0,0,0,.7-.47,1.88,1.88,0,0,1,1.71-1.19,2,2,0,0,1,1.88,2.05A2.35,2.35,0,0,1,23.1,17.9Z"/></g></g></svg>