<svg xmlns="http://www.w3.org/2000/svg" xmlns:xlink="http://www.w3.org/1999/xlink" viewBox="0 0 36.33 36.33"><defs><style>.cls-1{fill:none;}.cls-2{clip-path:url(#clip-path);}.cls-3{fill:#244667;}.cls-4{clip-path:url(#clip-path-2);}.cls-5{fill:#fff;}</style><clipPath id="clip-path" transform="translate(0)"><rect class="cls-1" width="36.33" height="36.33"/></clipPath><clipPath id="clip-path-2" transform="translate(0)"><rect class="cls-1" x="7.28" y="7.27" width="21.78" height="21.78"/></clipPath></defs><title>ad</title><g id="Layer_2" data-name="Layer 2"><g id="Layer_1-2" data-name="Layer 1"><g class="cls-2"><path class="cls-3" d="M18.17,36.33A18.17,18.17,0,1,0,0,18.17,18.16,18.16,0,0,0,18.17,36.33" transform="translate(0)"/></g><g class="cls-4"><path class="cls-5" d="M15.34,19.57a1,1,0,0,1-1-1V14.38a2,2,0,0,1,2-2,.26.26,0,0,1,.29.23.27.27,0,0,1-.23.3H16.4a1.5,1.5,0,0,0-1.51,1.5v4.21a.45.45,0,0,0,.9,0V15.3a.27.27,0,0,1,.53,0v3.29a1,1,0,0,1-1,1" transform="translate(0)"/><path class="cls-5" d="M18.17,26.47H16a.26.26,0,0,1-.26-.26h0v-6.9a.27.27,0,1,1,.53,0v6.63H17.9V18.58a.26.26,0,0,1,.3-.23.26.26,0,0,1,.23.23v7.63a.26.26,0,0,1-.26.26h0" transform="translate(0)"/><path class="cls-5" d="M21,19.59a1,1,0,0,1-1-1V15.33a.26.26,0,0,1,.26-.27.27.27,0,0,1,.26.27h0v3.28a.46.46,0,1,0,.91,0V14.4A1.51,1.51,0,0,0,20,12.9a.26.26,0,0,1-.23-.3.26.26,0,0,1,.23-.23,2,2,0,0,1,2,2v4.21a1,1,0,0,1-1,1" transform="translate(0)"/><path class="cls-5" d="M20.29,26.47H18.17a.27.27,0,0,1-.27-.26V18.6a.27.27,0,0,1,.3-.23.26.26,0,0,1,.23.23v7.34H20V19.33a.25.25,0,0,1,.26-.26.26.26,0,0,1,.26.26h0v6.88a.25.25,0,0,1-.26.26h0" transform="translate(0)"/><path class="cls-5" d="M18.17,8.47A1.34,1.34,0,1,0,19.5,9.81h0a1.33,1.33,0,0,0-1.33-1.33m0,3.19A1.85,1.85,0,1,1,20,9.81a1.85,1.85,0,0,1-1.85,1.85" transform="translate(0)"/><path class="cls-5" d="M12.32,24.57h0l-4.12-.44A.22.22,0,0,1,8,24a.24.24,0,0,1,0-.23L9.42,19.9a.24.24,0,0,1,.22-.16.23.23,0,0,1,.25.12l.54.88,3-1.86a.28.28,0,0,1,.37.09.27.27,0,0,1-.09.36l-3.19,2a.27.27,0,0,1-.37-.07h0l-.4-.65L8.57,23.64l3.24.35-.4-.65a.26.26,0,0,1,.07-.36h0l3.58-2.22a.26.26,0,0,1,.36.1.27.27,0,0,1-.1.37L12,23.29l.54.88a.28.28,0,0,1,0,.28.27.27,0,0,1-.23.12" transform="translate(0)"/><path class="cls-5" d="M13.49,16.56a.23.23,0,0,1-.14,0L10.42,14.7l-.54.89a.27.27,0,0,1-.25.12.26.26,0,0,1-.22-.17L8,11.65a.24.24,0,0,1,0-.23.26.26,0,0,1,.19-.13l4.12-.42a.27.27,0,0,1,.29.23.3.3,0,0,1,0,.18l-.53.87,1.68,1a.26.26,0,1,1-.28.44L11.5,12.46a.31.31,0,0,1-.12-.16.28.28,0,0,1,0-.2l.4-.65-3.24.34,1.14,3.06.4-.65a.25.25,0,0,1,.17-.11.24.24,0,0,1,.2,0l3.16,2a.26.26,0,0,1,.1.36h0a.28.28,0,0,1-.24.1" transform="translate(0)"/><path class="cls-5" d="M24,24.57a.27.27,0,0,1-.27-.26.33.33,0,0,1,0-.14l.55-.88L21,21.22a.27.27,0,0,1,.28-.45L24.84,23a.26.26,0,0,1,.1.36h0l-.41.63,3.25-.35-1.15-3.05-.4.65a.27.27,0,0,1-.36.09h0l-3.19-2a.26.26,0,0,1-.09-.37.26.26,0,0,1,.36-.08l3,1.85.56-.89a.22.22,0,0,1,.24-.12.26.26,0,0,1,.23.16l1.45,3.88a.26.26,0,0,1,0,.23.22.22,0,0,1-.19.12L24,24.57Z" transform="translate(0)"/><path class="cls-5" d="M22.83,16.56a.26.26,0,0,1-.25-.28.29.29,0,0,1,.11-.19l3.17-2a.26.26,0,0,1,.36.08h0l.4.65,1.15-3.06-3.26-.36.4.65a.24.24,0,0,1,0,.2.29.29,0,0,1-.11.16l-1.91,1.17a.27.27,0,0,1-.36-.06v0a.27.27,0,0,1,.08-.37h0l1.68-1-.54-.86a.27.27,0,0,1,.09-.37.23.23,0,0,1,.16,0l4.12.43a.26.26,0,0,1,.22.35l-1.46,3.88a.26.26,0,0,1-.22.17.28.28,0,0,1-.25-.12l-.54-.89L23,16.52a.23.23,0,0,1-.14,0" transform="translate(0)"/><path class="cls-5" d="M23.68,26.47h-11a.27.27,0,0,1-.24-.29.29.29,0,0,1,.24-.24h11a.27.27,0,0,1,.29.24.25.25,0,0,1-.23.29.06.06,0,0,1-.06,0" transform="translate(0)"/><path class="cls-5" d="M25.47,28.37H10.87a.27.27,0,0,1-.27-.26.26.26,0,0,1,.27-.26h14.6a.26.26,0,0,1,.26.26.26.26,0,0,1-.26.26" transform="translate(0)"/></g></g></g></svg>