<svg xmlns="http://www.w3.org/2000/svg" xmlns:xlink="http://www.w3.org/1999/xlink" viewBox="0 0 36.33 36.33"><defs><style>.cls-1{fill:none;}.cls-2{clip-path:url(#clip-path);}.cls-3{fill:#244667;}.cls-4{clip-path:url(#clip-path-2);}.cls-5{fill:#fff;}</style><clipPath id="clip-path" transform="translate(0)"><rect class="cls-1" width="36.33" height="36.33"/></clipPath><clipPath id="clip-path-2" transform="translate(0)"><rect class="cls-1" x="7.28" y="7.27" width="21.78" height="21.78"/></clipPath></defs><title>ag</title><g id="Layer_2" data-name="Layer 2"><g id="Layer_1-2" data-name="Layer 1"><g class="cls-2"><path class="cls-3" d="M18.17,36.33A18.17,18.17,0,1,0,0,18.17,18.16,18.16,0,0,0,18.17,36.33" transform="translate(0)"/></g><g class="cls-4"><path class="cls-5" d="M20.16,28H17.59a.35.35,0,0,1-.34-.35.34.34,0,0,1,.34-.34h2.23V24.26a.34.34,0,0,1,.33-.34h2.27a1.79,1.79,0,0,0,1.79-1.78V21.9l-.28-.21a.31.31,0,0,1-.09-.11.81.81,0,0,1,.29-1.1l.56-.35v-.7a.61.61,0,0,1,.61-.62h.25a.16.16,0,0,0,.14-.08.17.17,0,0,0,0-.17l-1.13-1.7a1.23,1.23,0,0,1-.21-.87,6,6,0,0,0,0-.73,6.25,6.25,0,0,0-8-6A.34.34,0,0,1,16,9a.35.35,0,0,1,.23-.43,7,7,0,0,1,8.9,6.68,5.52,5.52,0,0,1-.06.81.6.6,0,0,0,.1.41l1.13,1.7a.84.84,0,0,1-.23,1.17.86.86,0,0,1-.47.14h-.17v.81a.34.34,0,0,1-.17.28l-.75.47a.11.11,0,0,0-.06.12l.33.26a.32.32,0,0,1,.14.27v.42a2.48,2.48,0,0,1-2.47,2.47H20.5v3.05a.35.35,0,0,1-.34.35" transform="translate(0)"/><path class="cls-5" d="M15.31,11.72a3.55,3.55,0,1,0,3.55,3.54,3.53,3.53,0,0,0-3.55-3.54m0,7.78a4.23,4.23,0,1,1,4.23-4.23,4.23,4.23,0,0,1-4.23,4.23" transform="translate(0)"/><path class="cls-5" d="M13.24,21.62h4.15l.64-2.4a.46.46,0,0,1,.13-.18A4.67,4.67,0,0,0,20,15.27,4.73,4.73,0,1,0,12.47,19a.32.32,0,0,1,.12.18Zm4.41.69H13a.37.37,0,0,1-.34-.25L12,19.51A5.34,5.34,0,0,1,9.9,15.27a5.42,5.42,0,1,1,8.77,4.24L18,22.06a.34.34,0,0,1-.33.25" transform="translate(0)"/><path class="cls-5" d="M15.31,20.68a5.35,5.35,0,0,1-1.13-.12.34.34,0,0,1-.26-.4.33.33,0,0,1,.4-.26,4.76,4.76,0,0,0,4.18-1.14.34.34,0,0,1,.48,0h0a.34.34,0,0,1,0,.49,5.42,5.42,0,0,1-3.67,1.43" transform="translate(0)"/><path class="cls-5" d="M13.79,22.57h3.06v-.26H13.78Zm3.39.69H13.44a.34.34,0,0,1-.34-.34h0V22a.35.35,0,0,1,.34-.35h3.74a.34.34,0,0,1,.34.34h0v1a.34.34,0,0,1-.34.34" transform="translate(0)"/><path class="cls-5" d="M13.08,23.26a.09.09,0,0,0-.09.09v2.83a.09.09,0,0,0,.09.09h4.47a.09.09,0,0,0,.09-.09V23.35a.09.09,0,0,0-.09-.09Zm4.47,3.67H13.08a.77.77,0,0,1-.78-.77h0V23.32a.78.78,0,0,1,.78-.77h4.47a.79.79,0,0,1,.78.77v2.83a.78.78,0,0,1-.78.78" transform="translate(0)"/><path class="cls-5" d="M16.4,24.41H12.64a.35.35,0,0,1-.3-.38.35.35,0,0,1,.3-.3H16.4a.34.34,0,0,1,.39.3.34.34,0,0,1-.3.38A.14.14,0,0,1,16.4,24.41Z" transform="translate(0)"/><path class="cls-5" d="M16.93,25.74H12.64a.34.34,0,0,1,0-.68h4.29a.34.34,0,1,1,.09.68h-.09" transform="translate(0)"/><path class="cls-5" d="M14.71,26.93a.66.66,0,0,0,.6.39.67.67,0,0,0,.61-.39Zm.6,1.08A1.34,1.34,0,0,1,14,26.66v-.07a.35.35,0,0,1,.34-.35h2a.35.35,0,0,1,.35.35v.07A1.35,1.35,0,0,1,15.31,28" transform="translate(0)"/></g></g></g></svg>