<svg xmlns="http://www.w3.org/2000/svg" xmlns:xlink="http://www.w3.org/1999/xlink" viewBox="0 0 36.33 36.33"><defs><style>.cls-1{fill:none;}.cls-2{clip-path:url(#clip-path);}.cls-3{fill:#244667;}.cls-4{clip-path:url(#clip-path-2);}.cls-5{fill:#fff;}</style><clipPath id="clip-path" transform="translate(0 0)"><rect class="cls-1" width="36.33" height="36.33"/></clipPath><clipPath id="clip-path-2" transform="translate(0 0)"><rect class="cls-1" x="7.28" y="7.27" width="21.78" height="21.78"/></clipPath></defs><title>crea</title><g id="Layer_2" data-name="Layer 2"><g id="Layer_1-2" data-name="Layer 1"><g class="cls-2"><path class="cls-3" d="M18.17,36.34A18.17,18.17,0,1,0,0,18.17,18.17,18.17,0,0,0,18.17,36.34" transform="translate(0 0)"/></g><g class="cls-4"><path class="cls-5" d="M17.44,20.79a.33.33,0,0,0-.36.3,1.29,1.29,0,0,1-2.18.82.33.33,0,0,0-.47,0,.34.34,0,0,0,0,.47,2,2,0,0,0,1.2.54h.16a1.94,1.94,0,0,0,1.43-.62.92.92,0,0,1,.58.65.33.33,0,0,0,.32.26h.07a.33.33,0,0,0,.25-.39,1.54,1.54,0,0,0-.86-1.06,2.18,2.18,0,0,0,.15-.61.33.33,0,0,0-.29-.36h0" transform="translate(0 0)"/><path class="cls-5" d="M14,16.62a1.27,1.27,0,0,1-.84.23.33.33,0,0,0,0,.66h.14a2,2,0,0,0,1.13-.36,2,2,0,0,0,.63-.74,2,2,0,0,0,.83.28h.19a1.28,1.28,0,0,1,.19,1.45.32.32,0,0,0,.13.44.33.33,0,0,0,.43-.1,1.69,1.69,0,0,0,.23-.73,1.88,1.88,0,0,0-.27-1.2,1.85,1.85,0,0,0,.64-.43.32.32,0,0,0,0-.46.33.33,0,0,0-.42,0,1.28,1.28,0,0,1-1.72.09,2,2,0,0,0-.35-1.3.33.33,0,0,0-.46-.08.33.33,0,0,0-.08.46A1.28,1.28,0,0,1,14,16.62" transform="translate(0 0)"/><path class="cls-5" d="M26.35,20.7A.33.33,0,0,0,26,21a2.24,2.24,0,0,1-4.07,1,.33.33,0,1,0-.54.37,2.9,2.9,0,0,0,3.22,1.14A2.66,2.66,0,0,1,22.4,25a.32.32,0,0,0-.31.34.33.33,0,0,0,.34.32h0l.53-.08h0a3.63,3.63,0,0,1,1.3,2.74.34.34,0,0,0,.32.34h0a.34.34,0,0,0,.33-.33,4.14,4.14,0,0,0-1.27-3A3.24,3.24,0,0,0,25,24.21a3.87,3.87,0,0,0,.54-1.12,2.89,2.89,0,0,0,1.14-2,.33.33,0,0,0-.28-.37h0" transform="translate(0 0)"/><path class="cls-5" d="M20.57,25.68a2.06,2.06,0,0,1-1.27-.8,7,7,0,0,0,1.64-.2.33.33,0,0,0,.23-.4.31.31,0,0,0-.39-.24,5.69,5.69,0,0,1-3.32-.12.34.34,0,0,0-.4.11l0,0a2.73,2.73,0,0,1-1.87.74,2.35,2.35,0,0,1-2.5-2.17,1.94,1.94,0,0,1,.66-1.46,2,2,0,0,0,1.58-1.36,5.41,5.41,0,0,0,1.43.33,5,5,0,0,0,2.33-.32,1.57,1.57,0,0,1,.38,1.35.33.33,0,0,0,.25.39h.07a.34.34,0,0,0,.32-.26,2.16,2.16,0,0,0-.41-1.77,5.65,5.65,0,0,0,.9-.64.33.33,0,0,0,.05-.46.32.32,0,0,0-.46-.05l0,0a4.31,4.31,0,0,1-3.32,1.1,4.7,4.7,0,0,1-1.61-.44.36.36,0,0,0-.32,0,.32.32,0,0,0-.17.27,1.29,1.29,0,0,1-2.57-.17.34.34,0,0,0-.31-.35.32.32,0,0,0-.34.31,1.9,1.9,0,0,0,.21,1,1.24,1.24,0,0,1-1.27-.28.34.34,0,0,0-.47,0,.32.32,0,0,0,0,.44,1.79,1.79,0,0,0,.63.42,2,2,0,0,0,.71.14,2.18,2.18,0,0,0,.83-.19,1.92,1.92,0,0,0,.76.43A2.57,2.57,0,0,0,12,23l-.58,0a3.08,3.08,0,0,1-3-1.56,3.86,3.86,0,0,1-.11-3.18l0,.05a.33.33,0,0,0,.23.09A.33.33,0,0,0,9,18.12a.29.29,0,0,0-.1-.23,1.29,1.29,0,0,1,1.83-1.83.32.32,0,0,0,.46,0,.33.33,0,0,0,0-.42A1.92,1.92,0,0,0,10,15a2.17,2.17,0,0,1,.65-1.16,2.35,2.35,0,0,1,1.5-.5l0,.1a.32.32,0,0,0,.16.44.31.31,0,0,0,.13,0,.31.31,0,0,0,.3-.21,2.75,2.75,0,0,1,.71-.81.32.32,0,0,0,.09-.45.34.34,0,0,0-.46-.09l0,0a2.74,2.74,0,0,0-.36.32,3.16,3.16,0,0,0-2.42.64,2.83,2.83,0,0,0-.9,1.73,1.93,1.93,0,0,0-1.33,2.4,1.06,1.06,0,0,0,.06.19,3.47,3.47,0,0,0-.54,1.73,4.51,4.51,0,0,0,.47,2.37A3.34,3.34,0,0,0,9.48,23.3a4.52,4.52,0,0,0,2,.4,6.62,6.62,0,0,0,.77,0,3.16,3.16,0,0,0,2.93,1.77,3.36,3.36,0,0,0,2.24-.83,5.55,5.55,0,0,0,1.13.24,2.48,2.48,0,0,0,1.86,1.47c1.55.41,2.67,1.3,2.84,2.27a.33.33,0,0,0,.33.26h.06a.33.33,0,0,0,.27-.38h0c-.24-1.21-1.54-2.3-3.33-2.77" transform="translate(0 0)"/><path class="cls-5" d="M27.1,15.41l.62-.15a1.55,1.55,0,1,0-.76-3l-.61.15a.88.88,0,0,1-1.08-.64.87.87,0,0,1,.1-.67l.32-.55A1.54,1.54,0,1,0,23,9l-.32.54a.9.9,0,0,1-1.23.3.92.92,0,0,1-.4-.54l-.15-.61a1.55,1.55,0,0,0-3,.75l.16.62a.9.9,0,0,1-1.32,1l-.54-.33a1.55,1.55,0,0,0-1.59,2.66l.54.32a.33.33,0,0,0,.34-.56L15,12.77a.89.89,0,0,1-.26-1.23.9.9,0,0,1,1.18-.3l.54.33a1.54,1.54,0,0,0,2.29-1.7l-.15-.62a.89.89,0,1,1,1.73-.43l.15.61a1.55,1.55,0,0,0,2.82.42l.33-.54A.89.89,0,0,1,24.83,9a.88.88,0,0,1,.3,1.22l-.32.54a1.54,1.54,0,0,0,1.7,2.29l.61-.15a.89.89,0,1,1,.43,1.72l-.61.15a1.55,1.55,0,0,0-.41,2.83l.54.32a.89.89,0,0,1-.91,1.53l-.55-.33a1.65,1.65,0,0,0-1.88.18.34.34,0,0,0-.11.45.33.33,0,0,0,.46.11h0c.6-.41.94-.3,1.18-.16l.54.32a1.54,1.54,0,0,0,1.58-2.65L26.86,17a.89.89,0,0,1-.3-1.22.92.92,0,0,1,.54-.41Z" transform="translate(0 0)"/><path class="cls-5" d="M22.44,16.09a3.92,3.92,0,0,0-2.59-1,2,2,0,0,0-.47-.66,2.1,2.1,0,1,1,3.78,1.83,1.67,1.67,0,0,1-.25.4A3,3,0,0,0,22.44,16.09ZM24,15.38a2.76,2.76,0,0,0-2.74-2.77,2.79,2.79,0,0,0-2.47,1.5A2.19,2.19,0,0,0,17.57,14a.33.33,0,1,0,.11.65h0a1.38,1.38,0,0,1,1.6.93.34.34,0,0,0,.34.22,3.45,3.45,0,0,1,2.33.78,2.63,2.63,0,0,1,.69,2.06A.34.34,0,0,0,23,19h0a.34.34,0,0,0,.33-.32,4.27,4.27,0,0,0-.14-1.28,2.73,2.73,0,0,0,.83-2" transform="translate(0 0)"/></g></g></g></svg>