<svg xmlns="http://www.w3.org/2000/svg" xmlns:xlink="http://www.w3.org/1999/xlink" viewBox="0 0 36.33 36.33"><defs><style>.cls-1{fill:none;}.cls-2{clip-path:url(#clip-path);}.cls-3{fill:#244667;}.cls-4{clip-path:url(#clip-path-2);}.cls-5{fill:#fff;}</style><clipPath id="clip-path" transform="translate(0)"><rect class="cls-1" width="36.33" height="36.33"/></clipPath><clipPath id="clip-path-2" transform="translate(0)"><rect class="cls-1" x="7.28" y="7.27" width="21.78" height="21.78"/></clipPath></defs><title>ei</title><g id="Layer_2" data-name="Layer 2"><g id="Layer_1-2" data-name="Layer 1"><g class="cls-2"><path class="cls-3" d="M18.17,36.33A18.17,18.17,0,1,0,0,18.17,18.16,18.16,0,0,0,18.17,36.33" transform="translate(0)"/></g><g class="cls-4"><path class="cls-5" d="M28.75,24.34l-4.31-2.82a3.25,3.25,0,0,0-.52-.28,26.26,26.26,0,0,0-5.22-1.73,1.12,1.12,0,0,0-.41,0l-3.91.88a1.3,1.3,0,0,0-1,1.49,1.28,1.28,0,0,0,1.49,1h0l1.46-.33L18,22.22a.23.23,0,1,1,.11.44l-4.65,1h-.11L9,22a1.12,1.12,0,1,0-.79,2.1l4.48,2.14h0a1.91,1.91,0,0,0,.62.13c1.68,0,5.6.08,5.89,0a29.18,29.18,0,0,0,3-.68,1.43,1.43,0,0,1,1.23.28l2.79,2.31a.31.31,0,0,0,.21.07.32.32,0,0,0,.32-.32.3.3,0,0,0-.12-.25l-2.79-2.31a2.08,2.08,0,0,0-1.8-.41c-2.44.6-2.81.67-2.87.67s-2.46,0-5.81-.06a1.22,1.22,0,0,1-.38-.07L8.45,23.55h0a.49.49,0,0,1-.31-.6.47.47,0,0,1,.6-.3h0L13.1,24.3h0a1.26,1.26,0,0,0,.27,0l.19,0,4.65-1a.87.87,0,0,0-.39-1.69l-1.6.36-1.45.33a.6.6,0,0,1-.49-.09.62.62,0,0,1-.27-.41.64.64,0,0,1,.51-.74l3.9-.88a.54.54,0,0,1,.22,0h0a25.82,25.82,0,0,1,5,1.69,2.1,2.1,0,0,1,.42.22l4.3,2.82a.33.33,0,0,0,.45-.1.32.32,0,0,0-.09-.44Z" transform="translate(0)"/><path class="cls-5" d="M14.17,19.59a.32.32,0,1,0,.51-.39,4.75,4.75,0,1,1,7.45.14.32.32,0,1,0,.49.41,5.39,5.39,0,1,0-8.45-.16" transform="translate(0)"/><path class="cls-5" d="M16.34,16.32a.33.33,0,0,0-.33.33,2.44,2.44,0,0,0,4.87.1v-.1a.32.32,0,1,0-.64,0,1.79,1.79,0,0,1-3.58,0,.32.32,0,0,0-.32-.33h0" transform="translate(0)"/><path class="cls-5" d="M15.55,10.24a.33.33,0,0,0,.32-.33h0V8.19a.33.33,0,0,0-.65,0V9.91a.33.33,0,0,0,.33.33" transform="translate(0)"/><path class="cls-5" d="M10.47,13.68H12.2a.32.32,0,0,0,.32-.33A.32.32,0,0,0,12.2,13H10.47a.32.32,0,0,0-.32.32A.32.32,0,0,0,10.47,13.68Z" transform="translate(0)"/><path class="cls-5" d="M12.68,11a.36.36,0,0,0,.22.09.32.32,0,0,0,.33-.31.34.34,0,0,0-.09-.24L11.91,9.34a.32.32,0,0,0-.46,0,.33.33,0,0,0,0,.45Z" transform="translate(0)"/><path class="cls-5" d="M17,15.57a.42.42,0,0,0,.42-.42.42.42,0,0,0-.83,0h0a.41.41,0,0,0,.41.42" transform="translate(0)"/><path class="cls-5" d="M20.33,15.15a.41.41,0,0,0-.42-.41.42.42,0,1,0,0,.83h0a.42.42,0,0,0,.42-.42" transform="translate(0)"/></g></g></g></svg>