<svg xmlns="http://www.w3.org/2000/svg" xmlns:xlink="http://www.w3.org/1999/xlink" viewBox="0 0 36.33 36.33"><defs><style>.cls-1{fill:none;}.cls-2{clip-path:url(#clip-path);}.cls-3{fill:#244667;}.cls-4{clip-path:url(#clip-path-2);}.cls-5{fill:#fff;}</style><clipPath id="clip-path" transform="translate(0 0)"><rect class="cls-1" width="36.33" height="36.33"/></clipPath><clipPath id="clip-path-2" transform="translate(0 0)"><rect class="cls-1" x="7.28" y="7.27" width="21.78" height="21.78"/></clipPath></defs><title>in</title><g id="Layer_2" data-name="Layer 2"><g id="Layer_1-2" data-name="Layer 1"><g class="cls-2"><path class="cls-3" d="M18.17,36.34A18.17,18.17,0,1,0,0,18.17,18.17,18.17,0,0,0,18.17,36.34" transform="translate(0 0)"/></g><g class="cls-4"><path class="cls-5" d="M18.44,13.72A4.24,4.24,0,0,1,22.66,18a7.12,7.12,0,0,1-.21,1.84A28.17,28.17,0,0,1,21,23.72H15.89a28.17,28.17,0,0,1-1.47-3.93A7.12,7.12,0,0,1,14.21,18a4.24,4.24,0,0,1,4.23-4.23M21.19,28a.49.49,0,0,1-.38.14L16.34,28a.45.45,0,0,1-.49-.4.44.44,0,0,1,.34-.38.37.37,0,0,0,0-.73.43.43,0,0,1-.4-.4.41.41,0,0,1,.31-.37.38.38,0,0,0,.25-.47.39.39,0,0,0-.25-.25.43.43,0,0,1-.32-.38.27.27,0,0,1,.06-.17H21.1a.33.33,0,0,1,.11.25.39.39,0,0,1-.32.36.37.37,0,0,0-.24.47.34.34,0,0,0,.24.25.39.39,0,0,1,.32.44.36.36,0,0,1-.33.31.38.38,0,0,0-.27.46.36.36,0,0,0,.3.28.45.45,0,0,1,.4.4.37.37,0,0,1-.12.25M13.45,18a7.65,7.65,0,0,0,.24,2A27.62,27.62,0,0,0,15.2,24a1.1,1.1,0,0,0,.08,1.37,1,1,0,0,0-.28.72,1.09,1.09,0,0,0,.34.81,1.11,1.11,0,0,0-.25.7,1.21,1.21,0,0,0,1.23,1.17l4.47.05h0a1.26,1.26,0,0,0,.9-.35,1.09,1.09,0,0,0,0-1.59,1.1,1.1,0,0,0,0-1.44,1.08,1.08,0,0,0,0-1.46,27.1,27.1,0,0,0,1.5-4,8.08,8.08,0,0,0,.23-2,5,5,0,1,0-10,0Z" transform="translate(0 0)"/><path class="cls-5" d="M15.16,12.44h0a0,0,0,0,1,0,0L12.82,9.58a.09.09,0,0,1,0-.05.05.05,0,0,1,0,0h.05l0,0,2.25,2.86s0,0,0,0a.05.05,0,0,1,0,0M13.22,9.27a.4.4,0,0,0-.3-.17.46.46,0,0,0-.32.09.48.48,0,0,0-.17.3.42.42,0,0,0,.1.32l2.24,2.85a.46.46,0,0,0,.35.17h0a.44.44,0,0,0,.42-.46.58.58,0,0,0-.09-.25Z" transform="translate(0 0)"/><path class="cls-5" d="M21.55,12.32l1.86-2.78a0,0,0,0,1,0,0h0s0,0,0,0a.06.06,0,0,1,0,0l-1.85,2.79s0,0-.05,0h0l0,0a.11.11,0,0,1,0,0m-.19.41h0a.51.51,0,0,0,.24.07h0a.46.46,0,0,0,.35-.2l1.85-2.79a.44.44,0,0,0-.71-.51l0,0-1.86,2.79a.45.45,0,0,0,.13.61" transform="translate(0 0)"/><path class="cls-5" d="M18.3,11.63l.16-3.7a.09.09,0,0,1,0,0h.05l0,0a0,0,0,0,1,0,0l-.16,3.71a.06.06,0,0,1-.06.06l0,0a.08.08,0,0,1,0,0Zm0,.44h0a.44.44,0,0,0,.43-.42L19,8a.44.44,0,0,0-.42-.46h0a.47.47,0,0,0-.32.12.49.49,0,0,0-.14.3l-.16,3.71a.44.44,0,0,0,.42.46h0Z" transform="translate(0 0)"/><path class="cls-5" d="M15.77,17.25h0a.43.43,0,0,0,.44-.39,1.75,1.75,0,0,1,0-.32,1.47,1.47,0,0,1,1.16-1,1.57,1.57,0,0,1,.37-.05.43.43,0,0,0,.41-.43.41.41,0,0,0-.43-.4,2.35,2.35,0,0,0-2.38,2.2.41.41,0,0,0,.39.44" transform="translate(0 0)"/></g></g></g></svg>