<svg xmlns="http://www.w3.org/2000/svg" xmlns:xlink="http://www.w3.org/1999/xlink" viewBox="0 0 36.33 36.33"><defs><style>.cls-1{fill:none;}.cls-2{clip-path:url(#clip-path);}.cls-3{fill:#244667;}.cls-4{clip-path:url(#clip-path-2);}.cls-5{fill:#fff;}</style><clipPath id="clip-path" transform="translate(0 0)"><rect class="cls-1" width="36.33" height="36.33"/></clipPath><clipPath id="clip-path-2" transform="translate(0 0)"><rect class="cls-1" x="7.28" y="7.27" width="21.78" height="21.78"/></clipPath></defs><title>pro</title><g id="Layer_2" data-name="Layer 2"><g id="Layer_1-2" data-name="Layer 1"><g class="cls-2"><path class="cls-3" d="M18.17,36.34A18.17,18.17,0,1,0,0,18.17,18.17,18.17,0,0,0,18.17,36.34" transform="translate(0 0)"/></g><g class="cls-4"><path class="cls-5" d="M26.68,25,21,23.2,20.79,21a4.53,4.53,0,0,0,1-1.87l0-.42a2.4,2.4,0,0,1,.32-.93,3.15,3.15,0,0,0,.42-1.57V13.93a.33.33,0,1,0-.66,0v2.26a2.42,2.42,0,0,1-.34,1.23,3.24,3.24,0,0,0-.4,1.18l0,.42a4,4,0,0,1-.89,1.61.33.33,0,0,0-.08.3.41.41,0,0,0,0,.11l.21,2.44a.35.35,0,0,0,.23.29l5.92,1.9a2.49,2.49,0,0,1,1.75,2.4.34.34,0,0,0,.67,0,3.16,3.16,0,0,0-2.22-3" transform="translate(0 0)"/><path class="cls-5" d="M27.4,21.25l-.08-.87a2.12,2.12,0,0,0,.46-.91l0-.2a1,1,0,0,1,.13-.37,1.75,1.75,0,0,0,.22-.83v-1a2.15,2.15,0,0,0-4.29,0v1a1.71,1.71,0,0,0,.17.74l0,.06a1.19,1.19,0,0,1,.1.32l0,.24a2,2,0,0,0,.42.87l-.08.91-2.59.84a.33.33,0,0,0,.11.65h.1l2.79-.9a.32.32,0,0,0,.23-.29l.1-1.15v-.05a.33.33,0,0,0-.06-.3,1.62,1.62,0,0,1-.36-.64l0-.25a1.64,1.64,0,0,0-.17-.53l0-.07a1.05,1.05,0,0,1-.11-.43v-1a1.49,1.49,0,0,1,3,0v1a1.13,1.13,0,0,1-.13.5,1.39,1.39,0,0,0-.21.62l0,.2a1.85,1.85,0,0,1-.38.67.32.32,0,0,0-.08.25v.07l.1,1.15a.33.33,0,0,0,.23.29l1.35.43a.32.32,0,0,0,.41-.21.33.33,0,0,0-.21-.42Z" transform="translate(0 0)"/><path class="cls-5" d="M7.89,22.31l1.53-.49a.35.35,0,0,0,.23-.29l.1-1.15v-.05a.37.37,0,0,0-.07-.3,1.84,1.84,0,0,1-.36-.64l0-.25a1.7,1.7,0,0,0-.16-.53l0-.06A.92.92,0,0,1,9,18.12v-1a1.49,1.49,0,0,1,3,0v1a1,1,0,0,1-.14.49,1.8,1.8,0,0,0-.21.63l0,.2a1.62,1.62,0,0,1-.38.66.35.35,0,0,0-.08.26v.07l.1,1.15a.33.33,0,0,0,.23.29l2.8.9a.34.34,0,0,0,.42-.22.33.33,0,0,0-.22-.41l-2.59-.84-.07-.87a2.11,2.11,0,0,0,.45-.91l0-.2a1.15,1.15,0,0,1,.12-.37,1.65,1.65,0,0,0,.23-.83v-1a2.15,2.15,0,0,0-4.3,0v1a1.59,1.59,0,0,0,.18.74l0,.06a.9.9,0,0,1,.09.32l0,.24a2,2,0,0,0,.42.87L9,21.25l-1.32.43a.32.32,0,0,0-.24.4.33.33,0,0,0,.34.25l.1,0" transform="translate(0 0)"/><path class="cls-5" d="M25.57,9.68l1.32-.81v.45l-1.32.83Zm.7,1.25-.39-.2,1.31-.82.4.2Zm-5,4.09c0-.16,0-.31,0-.47a.34.34,0,0,0-.37-.29.33.33,0,0,0-.29.37c0,.13,0,.26,0,.39a2.54,2.54,0,0,1-2.24,2.76A2.55,2.55,0,0,1,16.13,15a2.55,2.55,0,0,1,2.25-2.75,2.17,2.17,0,0,1,1.85,1.2l-.91.57a1.17,1.17,0,0,0-.95-.48A1.37,1.37,0,0,0,17.1,15a1.38,1.38,0,0,0,1.28,1.47,1.28,1.28,0,0,0,1.11-.75.32.32,0,0,0-.16-.44.33.33,0,0,0-.44.15.59.59,0,0,1-.51.38.72.72,0,0,1-.61-.8.72.72,0,0,1,.61-.8.52.52,0,0,1,.37.17l-.55.35a.34.34,0,0,0-.09.46.35.35,0,0,0,.45.1l6.67-4.17.91.47a.4.4,0,0,0,.15,0,.26.26,0,0,0,.17-.05l2-1.22a.33.33,0,0,0,.12-.45.29.29,0,0,0-.14-.13l-.86-.44V8.28a.33.33,0,0,0-.32-.34.41.41,0,0,0-.19,0l-2,1.22a.32.32,0,0,0-.16.28v1.07L22.12,12.3a4.17,4.17,0,0,0-7.91,1.85v2.13a3.09,3.09,0,0,0,.32,1.4l.07.12a2.47,2.47,0,0,1,.23.79l.07.52a4.61,4.61,0,0,0,.91,1.79.22.22,0,0,0,0,.08l-.2,2.22L9.9,25a3.14,3.14,0,0,0-2.21,3,.33.33,0,0,0,.66,0,2.52,2.52,0,0,1,1.75-2.4L16,23.77a.33.33,0,0,0,.23-.29L16.46,21a.37.37,0,0,0,0-.11.32.32,0,0,0,0-.35A4,4,0,0,1,15.56,19l-.07-.52a2.91,2.91,0,0,0-.3-1l-.06-.13a2.47,2.47,0,0,1-.26-1.1V14.15a3.51,3.51,0,0,1,6.68-1.5l-.76.48a2.82,2.82,0,0,0-2.42-1.53A3.2,3.2,0,0,0,15.47,15a3.19,3.19,0,0,0,2.9,3.42A3.2,3.2,0,0,0,21.28,15" transform="translate(0 0)"/></g></g></g></svg>