<svg xmlns="http://www.w3.org/2000/svg" xmlns:xlink="http://www.w3.org/1999/xlink" viewBox="0 0 36.33 36.33"><defs><style>.cls-1{fill:none;}.cls-2{clip-path:url(#clip-path);}.cls-3{fill:#244667;}.cls-4{clip-path:url(#clip-path-2);}.cls-5{fill:#fff;}</style><clipPath id="clip-path" transform="translate(0 0)"><rect class="cls-1" width="36.33" height="36.33"/></clipPath><clipPath id="clip-path-2" transform="translate(0 0)"><rect class="cls-1" x="7.28" y="7.27" width="21.78" height="21.78"/></clipPath></defs><title>psr</title><g id="Layer_2" data-name="Layer 2"><g id="Layer_1-2" data-name="Layer 1"><g class="cls-2"><path class="cls-3" d="M18.17,36.34A18.17,18.17,0,1,0,0,18.17,18.17,18.17,0,0,0,18.17,36.34" transform="translate(0 0)"/></g><g class="cls-4"><path class="cls-5" d="M15.94,24h4.45a6.87,6.87,0,0,1,2.07-4.65,6.08,6.08,0,1,0-8.64,0A7.12,7.12,0,0,1,15.94,24m4.8.66H15.61a.33.33,0,0,1-.33-.33v-.05a6.48,6.48,0,0,0-1.93-4.51A6.7,6.7,0,0,1,11.5,14a6.75,6.75,0,1,1,11.44,5.79,6.19,6.19,0,0,0-1.88,4.39v.15a.33.33,0,0,1-.32.3" transform="translate(0 0)"/><path class="cls-5" d="M23.12,15.7a.34.34,0,0,1-.34-.33,3.94,3.94,0,0,0-.06-.77.34.34,0,0,1,.27-.39.34.34,0,0,1,.39.27h0a5.26,5.26,0,0,1,.07.89.32.32,0,0,1-.32.33h0" transform="translate(0 0)"/><path class="cls-5" d="M22.74,13.81a.35.35,0,0,1-.31-.2,4.17,4.17,0,0,0-.5-.93.33.33,0,0,1,.09-.46h0a.33.33,0,0,1,.46.08h0a5.65,5.65,0,0,1,.55,1,.33.33,0,0,1-.18.43h0a.19.19,0,0,1-.1.05" transform="translate(0 0)"/><path class="cls-5" d="M21.47,12a.35.35,0,0,1-.22-.08,4,4,0,0,0-.62-.47.33.33,0,1,1,.29-.59l.07,0a6.28,6.28,0,0,1,.7.55.33.33,0,0,1,0,.47h0a.35.35,0,0,1-.22.08" transform="translate(0 0)"/><path class="cls-5" d="M15.13,24.65a.12.12,0,0,0-.12.12v1.57a1,1,0,0,0,1,1h4.26a1,1,0,0,0,1-1V24.75a.12.12,0,0,0-.12-.12ZM20.29,28H16a1.69,1.69,0,0,1-1.69-1.69v-1.6a.78.78,0,0,1,.79-.78h6.08a.78.78,0,0,1,.78.78v1.56A1.7,1.7,0,0,1,20.33,28h0" transform="translate(0 0)"/><path class="cls-5" d="M18.68,26.34h-4a.33.33,0,0,1-.08-.66h4.09a.32.32,0,0,1,.37.29.33.33,0,0,1-.29.37.11.11,0,0,1-.08,0" transform="translate(0 0)"/><path class="cls-5" d="M21.12,22.34H15.19a.32.32,0,0,1-.37-.29.33.33,0,0,1,.29-.37h6a.34.34,0,0,1,.29.37.34.34,0,0,1-.29.29" transform="translate(0 0)"/><path class="cls-5" d="M18.17,10.79a1,1,0,1,0,1,1,1,1,0,0,0-1-1h0m0,2.66a1.65,1.65,0,1,1,1.64-1.64,1.65,1.65,0,0,1-1.64,1.64" transform="translate(0 0)"/><path class="cls-5" d="M21.06,18.88a.34.34,0,0,1-.33-.34v-2.1a1.71,1.71,0,0,0-1.08-1.56.17.17,0,0,0-.17,0,2,2,0,0,1-2.63,0,.15.15,0,0,0-.16,0,1.71,1.71,0,0,0-1.1,1.58v2.1a.33.33,0,0,1-.29.38.34.34,0,0,1-.37-.29V16.44a2.38,2.38,0,0,1,1.51-2.19.85.85,0,0,1,.84.13,1.36,1.36,0,0,0,1.76,0,.82.82,0,0,1,.84-.13,2.38,2.38,0,0,1,1.51,2.19v2.1a.35.35,0,0,1-.33.34" transform="translate(0 0)"/><path class="cls-5" d="M16.9,18.88a.32.32,0,0,1-.32-.33h0V16.93a.34.34,0,0,1,.28-.38.34.34,0,0,1,.38.29v1.7a.34.34,0,0,1-.34.34" transform="translate(0 0)"/><path class="cls-5" d="M19.43,18.88a.33.33,0,0,1-.33-.33h0V16.93a.35.35,0,0,1,.29-.38.35.35,0,0,1,.38.29v1.7a.34.34,0,0,1-.34.34" transform="translate(0 0)"/></g></g></g></svg>