<svg xmlns="http://www.w3.org/2000/svg" xmlns:xlink="http://www.w3.org/1999/xlink" viewBox="0 0 36.33 36.33"><defs><style>.cls-1{fill:none;}.cls-2{clip-path:url(#clip-path);}.cls-3{fill:#244667;}.cls-4{clip-path:url(#clip-path-2);}.cls-5{fill:#fff;}</style><clipPath id="clip-path" transform="translate(0)"><rect class="cls-1" width="36.33" height="36.33"/></clipPath><clipPath id="clip-path-2" transform="translate(0)"><rect class="cls-1" x="7.28" y="7.27" width="21.78" height="21.78"/></clipPath></defs><title>re</title><g id="Layer_2" data-name="Layer 2"><g id="Layer_1-2" data-name="Layer 1"><g class="cls-2"><path class="cls-3" d="M18.17,36.33A18.17,18.17,0,1,0,0,18.17,18.16,18.16,0,0,0,18.17,36.33" transform="translate(0)"/></g><g class="cls-4"><path class="cls-5" d="M19,15.81,18,17.67a.34.34,0,0,1-.33.18l-1.24-.14a.33.33,0,0,0-.37.3.34.34,0,0,0,.29.37l.5.05a1.87,1.87,0,0,1-.41,1.14,2.33,2.33,0,0,0-.42-.41.6.6,0,0,1-.18-.21l-.48-.84a.7.7,0,0,1-.06-.53l.87-2.69a.9.9,0,0,1,.74-.61l.4,0a1.47,1.47,0,0,1,.72.09h0l.88,1.14a.32.32,0,0,1,0,.34M28.76,23l-1.08-.78a.34.34,0,0,0-.43,0,36.45,36.45,0,0,0-2.53,2.83c-.47.57-.92,1.11-1.28,1.5s-.66.57-.69.57-.43-.09-1.64-1.42c-.69-.76-1.53-1.8-2.38-2.93.17-.51.33-1.06.48-1.67a11.3,11.3,0,0,0,1.84,1.61,4.34,4.34,0,0,1,1.51,1.53l.15.54A.33.33,0,0,0,23,25l.09,0a.33.33,0,0,0,.24-.41h0l-.11-.38a4.68,4.68,0,0,0,.38-.78c.54-1.2,1.53-3.43,3.35-4.15a.3.3,0,0,0,.2-.21,2.38,2.38,0,0,1,1.44-1.4.34.34,0,0,0,.17-.45.33.33,0,0,0-.41-.19,3.09,3.09,0,0,0-1.79,1.69c-2,.87-3,3.19-3.57,4.45a2.92,2.92,0,0,0-.14.31,5.91,5.91,0,0,0-1.43-1.32,9.64,9.64,0,0,1-2.05-1.88q.09-.37.15-.78l1.19-1.34h0a1.31,1.31,0,0,0,.31-1v0l-.28-1.57a1,1,0,0,0-.52-.78l-1.67-.95a2.24,2.24,0,0,0-1.34-.27l-.41,0a1.6,1.6,0,0,0-1.3,1.07l-.86,2.69a1.29,1.29,0,0,0,.11,1.07l.48.84a1.27,1.27,0,0,0,.38.42,1.88,1.88,0,0,1,.34.35,2.19,2.19,0,0,1-.39.29,7.73,7.73,0,0,0-1.68,1.39A4.53,4.53,0,0,0,11.71,19a3.18,3.18,0,0,0-1.36-.3,2.22,2.22,0,0,0-1.41-1.4,2.12,2.12,0,0,0-1-.07.34.34,0,1,0,.14.67,1.43,1.43,0,0,1,.71.06,1.69,1.69,0,0,1,1,1.2.35.35,0,0,0,.38.24c.09,0,2.29-.34,3.25,3a2.63,2.63,0,0,0-.28,1.29.33.33,0,0,0,.33.32h0a.34.34,0,0,0,.32-.36,1.82,1.82,0,0,1,.25-1l0,0A5.3,5.3,0,0,1,16,20.93a3,3,0,0,0,1.59-2.41h.08a1,1,0,0,0,1-.54l.94-1.87a1,1,0,0,0,0-1l.42.24a.34.34,0,0,1,.17.26v0l.28,1.57a.68.68,0,0,1-.15.48c-.08.08-.88,1-1.27,1.43a.39.39,0,0,0-.07.16c-.65,3.81-1.84,5.74-2.73,6.69a3.76,3.76,0,0,1-1.69,1.13c-.57-.17-4.39-1.38-5.81-3.49a.35.35,0,0,0-.47-.09h0L7.57,24a.34.34,0,0,0,.4.55l.35-.26c1.8,2.29,5.87,3.45,6,3.5h.14c.12,0,2.34-.37,3.93-4.28.79,1,1.55,1.95,2.19,2.66,1.31,1.44,1.82,1.62,2.12,1.62.54,0,1.19-.75,2.49-2.31.69-.84,1.47-1.77,2.28-2.59l.85.61a.34.34,0,0,0,.47-.07.35.35,0,0,0-.08-.48Z" transform="translate(0)"/><path class="cls-5" d="M9.56,22.19a.32.32,0,0,0,.47,0,.33.33,0,0,0,0-.47,4.67,4.67,0,0,1-.72-1.21.34.34,0,1,0-.62.26,4.84,4.84,0,0,0,.91,1.46" transform="translate(0)"/><path class="cls-5" d="M14.92,12.85a.34.34,0,0,0,.48-.48l-1.66-1.65a.33.33,0,0,0-.47,0,.33.33,0,0,0,0,.48Z" transform="translate(0)"/><path class="cls-5" d="M20.53,12.82a.31.31,0,0,0,.24-.1L22.46,11a.34.34,0,1,0-.44-.52l0,0L20.3,12.25a.33.33,0,0,0,0,.47.31.31,0,0,0,.24.1Z" transform="translate(0)"/><path class="cls-5" d="M17.78,11.52a.34.34,0,0,0,.34-.34V8.84a.34.34,0,0,0-.36-.32.33.33,0,0,0-.31.32v2.34a.34.34,0,0,0,.33.34" transform="translate(0)"/></g></g></g></svg>