<svg xmlns="http://www.w3.org/2000/svg" xmlns:xlink="http://www.w3.org/1999/xlink" viewBox="0 0 600 225.32"><defs><style>.cls-1{fill:none;}.cls-2{clip-path:url(#clip-path);}.cls-3{fill:#244667;}.cls-4{clip-path:url(#clip-path-2);}.cls-5{fill:#fff;}</style><clipPath id="clip-path" transform="translate(0)"><rect class="cls-1" width="600" height="225.32"/></clipPath><clipPath id="clip-path-2" transform="translate(0)"><rect class="cls-1" x="21.04" y="81.35" width="62.62" height="62.62"/></clipPath></defs><title>info4</title><g id="Layer_2" data-name="Layer 2"><g id="Layer_1-2" data-name="Layer 1"><g class="cls-2"><path class="cls-3" d="M52.35,165A52.35,52.35,0,1,0,0,112.66,52.34,52.34,0,0,0,52.35,165" transform="translate(0)"/></g><g class="cls-4"><path class="cls-5" d="M50.25,120.16a.93.93,0,0,0-1,.85h0a3.71,3.71,0,0,1-6.29,2.36.94.94,0,0,0-1.32,1.35,5.65,5.65,0,0,0,3.45,1.57h.46a5.6,5.6,0,0,0,4.09-1.78,2.61,2.61,0,0,1,1.68,1.85.94.94,0,0,0,.92.75,1.52,1.52,0,0,0,.21,0,.94.94,0,0,0,.72-1.12h0a4.43,4.43,0,0,0-2.47-3,5.49,5.49,0,0,0,.44-1.75.94.94,0,0,0-.86-1h0" transform="translate(0)"/><path class="cls-5" d="M40.47,108.16a3.63,3.63,0,0,1-2.41.67.94.94,0,1,0-.14,1.88h.41a5.57,5.57,0,0,0,5-3.15,5.52,5.52,0,0,0,2.41.77l.46,0h.07a3.67,3.67,0,0,1,.55,4.17.94.94,0,0,0,.31,1.29h0a1,1,0,0,0,.49.14.93.93,0,0,0,.8-.45,5.27,5.27,0,0,0,.65-2.09,5.41,5.41,0,0,0-.79-3.44,5.81,5.81,0,0,0,1.88-1.26,1,1,0,0,0-1.36-1.35,3.65,3.65,0,0,1-2.92,1.09,3.73,3.73,0,0,1-2-.81,5.53,5.53,0,0,0-1-3.76A.94.94,0,1,0,41.37,103a3.73,3.73,0,0,1-.89,5.18h0" transform="translate(0)"/><path class="cls-5" d="M75.89,119.9a.94.94,0,0,0-1,.84h0a6.42,6.42,0,0,1-11.69,3,.95.95,0,0,0-1.57,1.06,8.39,8.39,0,0,0,6.89,3.63,8.38,8.38,0,0,0,2.39-.35,7.67,7.67,0,0,1-6.31,4.13.94.94,0,1,0,.07,1.88h.08a9.81,9.81,0,0,0,1.52-.24l0,0A10.46,10.46,0,0,1,70,141.77a.94.94,0,0,0,.91,1h0a.94.94,0,0,0,.94-.94,12,12,0,0,0-3.65-8.68A9.38,9.38,0,0,0,71.92,130a11,11,0,0,0,1.57-3.25,8.3,8.3,0,0,0,3.29-5.8,1,1,0,0,0-.85-1h0" transform="translate(0)"/><path class="cls-5" d="M59.27,134.22a6.18,6.18,0,0,1-3.67-2.28,19,19,0,0,0,4.74-.6.94.94,0,0,0-.47-1.83,16.45,16.45,0,0,1-9.55-.35.94.94,0,0,0-1.13.32l-.08.06a7.73,7.73,0,0,1-5.38,2.11c-4,0-7.2-2.8-7.2-6.24a5.79,5.79,0,0,1,1.88-4.19,5.61,5.61,0,0,0,4.55-3.9,16.71,16.71,0,0,0,4.14,1,14.38,14.38,0,0,0,6.71-.94,4.48,4.48,0,0,1,1.07,3.86.93.93,0,0,0,.71,1.12h0l.2,0a.93.93,0,0,0,.94-.75,6.2,6.2,0,0,0-1.17-5.09,16.27,16.27,0,0,0,2.59-1.85,1,1,0,0,0,.09-1.34,1,1,0,0,0-1.34-.08,12.33,12.33,0,0,1-9.55,3.17,13.85,13.85,0,0,1-4.64-1.26,1,1,0,0,0-1.28.38.92.92,0,0,0-.11.4,3.71,3.71,0,0,1-7.41-.38v-.09a.93.93,0,0,0-.88-1,1,1,0,0,0-1,.88,5.63,5.63,0,0,0,.63,2.93,3.65,3.65,0,0,1-3.68-.79.94.94,0,0,0-1.38,1.28A5.22,5.22,0,0,0,29.44,120a5.38,5.38,0,0,0,2,.39,6.08,6.08,0,0,0,2.41-.53,5.58,5.58,0,0,0,2.19,1.25,7.48,7.48,0,0,0-1.41,4.35,7.55,7.55,0,0,0,.09,1.16c-.57.05-1.13.09-1.66.09-4,0-7-1.53-8.51-4.49a11.22,11.22,0,0,1-.34-9.16l.13.14a.94.94,0,0,0,1.33,0,1,1,0,0,0,0-1.34,3.71,3.71,0,0,1,5.22-5.26.95.95,0,0,0,1.33-1.35,5.6,5.6,0,0,0-3.55-1.6,6.13,6.13,0,0,1,1.88-3.34,6.58,6.58,0,0,1,4.3-1.44l-.15.29a.94.94,0,0,0,.45,1.25h0a1.1,1.1,0,0,0,.4.08.93.93,0,0,0,.86-.55,7.11,7.11,0,0,1,2-2.33.94.94,0,0,0-1.14-1.5,9,9,0,0,0-1,.91,9.09,9.09,0,0,0-7,1.85,8.33,8.33,0,0,0-2.6,5,5.61,5.61,0,0,0-4,5.4,5.67,5.67,0,0,0,.38,2,10,10,0,0,0-1.53,5,12.87,12.87,0,0,0,1.35,6.84,9.67,9.67,0,0,0,4.46,4.32,13.2,13.2,0,0,0,5.71,1.17,20.84,20.84,0,0,0,2.23-.13,9.14,9.14,0,0,0,8.43,5.11,9.68,9.68,0,0,0,6.46-2.41,17,17,0,0,0,3.24.68c.41,1.12,1.66,3.28,5.36,4.25,4.45,1.16,7.66,3.72,8.18,6.51a.93.93,0,0,0,.94.77.47.47,0,0,0,.17,0,.94.94,0,0,0,.76-1.09h0c-.67-3.5-4.43-6.64-9.57-8" transform="translate(0)"/><path class="cls-5" d="M78.06,104.68l1.76-.44a4.45,4.45,0,1,0-2.17-8.63l-1.76.44a2.55,2.55,0,0,1-2.81-3.79L74,90.69a4.45,4.45,0,0,0-7.63-4.56l-.94,1.57A2.56,2.56,0,0,1,60.76,87l-.44-1.76a4.45,4.45,0,0,0-8.63,2.17l.45,1.76a2.56,2.56,0,0,1-1.86,3.1A2.58,2.58,0,0,1,48.34,92l-1.56-.94a4.45,4.45,0,1,0-4.56,7.64l1.57.94a.94.94,0,0,0,1.29-.32,1,1,0,0,0-.32-1.3l-1.57-.94a2.56,2.56,0,1,1,2.39-4.53l.23.14,1.57,1A4.46,4.46,0,0,0,54,88.73L53.53,87a2.56,2.56,0,0,1,4.94-1.34.29.29,0,0,1,0,.09l.44,1.76a4.45,4.45,0,0,0,8.15,1.19L68,87.11a2.55,2.55,0,0,1,4.38,2.62l-.94,1.57a4.45,4.45,0,0,0,4.9,6.6l1.76-.45a2.56,2.56,0,0,1,1.35,4.94l-.09,0-1.78.45A4.44,4.44,0,0,0,76.4,111l1.57.94a2.56,2.56,0,0,1-2.62,4.39l-1.57-.94c-1.66-1-3.45-.83-5.42.51a.94.94,0,0,0,1.06,1.56c1.73-1.17,2.72-.86,3.39-.45l1.57.94a4.45,4.45,0,1,0,4.56-7.64l-1.56-.93a2.55,2.55,0,0,1-.88-3.51,2.58,2.58,0,0,1,1.57-1.17Z" transform="translate(0)"/><path class="cls-5" d="M64.64,106.62a11.29,11.29,0,0,0-7.45-2.78,5.71,5.71,0,0,0-1.36-1.9,6,6,0,1,1,10.89,5.24,6.31,6.31,0,0,1-.74,1.18,7.55,7.55,0,0,0-1.34-1.74m4.56-2a7.94,7.94,0,0,0-15-3.66,6.47,6.47,0,0,0-3.59-.33.95.95,0,0,0,.4,1.85,4,4,0,0,1,4.63,2.65.94.94,0,0,0,.94.63s4.17-.23,6.71,2.24a7.55,7.55,0,0,1,2,5.92.93.93,0,0,0,.9,1h0a.93.93,0,0,0,.94-.91,11.73,11.73,0,0,0-.41-3.68,8,8,0,0,0,2.42-5.68" transform="translate(0)"/></g><polygon class="cls-5" points="104.69 0 104.69 84.49 83.55 110.97 104.69 140.82 104.69 225.32 600 225.32 600 0 104.69 0"/></g></g></svg>