<svg xmlns="http://www.w3.org/2000/svg" xmlns:xlink="http://www.w3.org/1999/xlink" viewBox="0 0 600 225.32"><defs><style>.cls-1{fill:none;}.cls-2{clip-path:url(#clip-path);}.cls-3{fill:#244667;}.cls-4{clip-path:url(#clip-path-2);}.cls-5{fill:#fff;}</style><clipPath id="clip-path" transform="translate(0)"><rect class="cls-1" width="600" height="225.32"/></clipPath><clipPath id="clip-path-2" transform="translate(0)"><rect class="cls-1" x="21.04" y="81.35" width="62.62" height="62.62"/></clipPath></defs><title>info2</title><g id="Layer_2" data-name="Layer 2"><g id="Layer_1-2" data-name="Layer 1"><g class="cls-2"><path class="cls-3" d="M52.35,165A52.35,52.35,0,1,0,0,112.66,52.34,52.34,0,0,0,52.35,165" transform="translate(0)"/></g><g class="cls-4"><path class="cls-5" d="M44.58,122.32a10.61,10.61,0,0,1-2.2-4l-.17-1.36a8.17,8.17,0,0,0-.81-2.64l-.17-.32a6.33,6.33,0,0,1-.66-2.87v-5.6a9.11,9.11,0,0,1,9.1-9.11,8.93,8.93,0,0,1,1.55.13,1,1,0,0,0,1.12-.8,1,1,0,0,0-.8-1.11,11,11,0,0,0-12.76,9,10.65,10.65,0,0,0-.16,1.87v5.6a8.18,8.18,0,0,0,.87,3.7l.17.33a6.37,6.37,0,0,1,.62,2l.17,1.36a11.86,11.86,0,0,0,2.39,4.72.57.57,0,0,0,0,.18l-.5,5.77L27.39,134c-2.52.82-5.87,2.39-5.87,6.73a1,1,0,0,0,1.94,0c0-2.43,1.31-3.83,4.53-4.86l15.55-5a1,1,0,0,0,.67-.84l.55-6.41a1.32,1.32,0,0,0,0-.28,1,1,0,0,0-.16-1" transform="translate(0)"/><path class="cls-5" d="M55.07,98.68a13.09,13.09,0,1,1,13.09,13.08A13.09,13.09,0,0,1,55.07,98.68Zm28.1,0a15,15,0,1,0-23.75,12.21.94.94,0,0,0-.69.81c-9.24-1.19-10.53-5-10.6-5.19a1,1,0,0,0-.54-.68.94.94,0,0,0-.89.06L42.92,108a1,1,0,1,0,1,1.69l2.87-1.62a7.51,7.51,0,0,0,1.73,2c2.17,1.78,5.43,3,9.69,3.55-.08.15-.16.31-.25.46a8.24,8.24,0,0,0-1.05,3.12l-.14,1.12a10.49,10.49,0,0,1-2.33,4.17,1,1,0,0,0-.21.85,1,1,0,0,0,0,.29L54.7,130a1,1,0,0,0,.68.84l15.53,5c3.3,1,4.85,1.8,4.85,4.2a1,1,0,1,0,1.95,0c0-4.08-3.3-5.13-6.21-6.06L56.58,129.2l-.49-5.75a17.08,17.08,0,0,0,1.43-2,8.07,8.07,0,0,0,1.12-2.87l.14-1.12a6.47,6.47,0,0,1,.81-2.38A8.13,8.13,0,0,0,60.65,112a1.22,1.22,0,0,0,0-.27,15,15,0,0,0,22.53-13Z" transform="translate(0)"/><path class="cls-5" d="M71.78,97.93a.94.94,0,0,0-.84-.5H66l4.52-7.05a1,1,0,0,0-1.64-1l-5.47,8.55a.94.94,0,0,0,.26,1.32.93.93,0,0,0,.56.17h5l-4.3,6.86a1,1,0,0,0,.29,1.33h0a.93.93,0,0,0,.52.15,1,1,0,0,0,.79-.45l5.24-8.35a1,1,0,0,0,0-1" transform="translate(0)"/></g><polygon class="cls-5" points="104.69 0 104.69 84.49 83.55 110.97 104.69 140.82 104.69 225.32 600 225.32 600 0 104.69 0"/></g></g></svg>