<svg xmlns="http://www.w3.org/2000/svg" xmlns:xlink="http://www.w3.org/1999/xlink" viewBox="0 0 600 225.32"><defs><style>.cls-1{fill:none;}.cls-2{clip-path:url(#clip-path);}.cls-3{fill:#244667;}.cls-4{clip-path:url(#clip-path-2);}.cls-5{fill:#fff;}</style><clipPath id="clip-path" transform="translate(0)"><rect class="cls-1" width="600" height="225.32"/></clipPath><clipPath id="clip-path-2" transform="translate(0)"><rect class="cls-1" x="21.04" y="81.35" width="62.62" height="62.62"/></clipPath></defs><title>info9</title><g id="Layer_2" data-name="Layer 2"><g id="Layer_1-2" data-name="Layer 1"><g class="cls-2"><path class="cls-3" d="M52.35,165A52.35,52.35,0,1,0,0,112.66,52.34,52.34,0,0,0,52.35,165" transform="translate(0)"/></g><g class="cls-4"><path class="cls-5" d="M58.31,134.22,58,133.7l-1.37-2.1a11,11,0,0,1-3.06-1,15.21,15.21,0,0,1-5.8-5.26c-2.13-3.1-4.13-6.28-6.19-9.41s-4.33-6.54-6.46-9.85a3.52,3.52,0,0,1-.84-2.32,2,2,0,0,1,1.09-1.59,2.42,2.42,0,0,1,2.13,0,4.89,4.89,0,0,1,1.57,1.69c1,1.51,2,3,3,4.57l1.47,2.2c.53.79,1.54,3,2.75,2.11s-.36-2.54-.82-3.24l-1.52-2.16c-2.22-3.58-4.47-7-6.6-10.49-1-1.59-.65-2.61.6-3.31s2.21-.27,3.21,1.25l7.76,11.87c.36.55.59,1,1.27,1.25a.88.88,0,0,0,1.18-.4.08.08,0,0,0,0,0,1.93,1.93,0,0,0-.39-2l-9.15-14c-1-1.53-.68-3,.77-3.57,1.1-.49,2.13,0,3,1.28q4.66,7.17,9.29,14.21c.5.77,1.12,1.42,2,.79s.37-1.38,0-2.08q-3.59-5.36-7.16-10.93A6.29,6.29,0,0,1,49,89.57a2.18,2.18,0,0,1,1.51-2.69l.29-.07c1.3-.23,2,.56,2.55,1.49q6.07,9.33,12.21,18.61a2.7,2.7,0,0,0,1.79,1.22c1.07,0,1-1.17,1-2,.17-2,.26-4,.45-5.94a2.36,2.36,0,0,1,2.33-2.4h.07a2.34,2.34,0,0,1,2.06,2.31c.35,5.37.71,10.73.88,16.21a15.35,15.35,0,0,1-.2,2.79,5.19,5.19,0,0,1-.33,1.36,9.36,9.36,0,0,1-.42,1.2l1.07,1.63.41.63,3,4.52L61.53,139Zm-8.75-3.14a10.36,10.36,0,0,1-1.42.4l-1.29,2.17-.32.51-3,5L27,129.26l2.79-4.65.39-.65,1-1.66a10.73,10.73,0,0,1-.47-1.18,9.83,9.83,0,0,1-.38-1.31A13.38,13.38,0,0,1,30,117c0-5.36,0-10.82.23-16.23a2.36,2.36,0,0,1,2.2-2.41,2.23,2.23,0,0,1,2.26,1.48,2.64,2.64,0,0,0-.93.76,5.69,5.69,0,0,0-.52,6.71q5.89,9.38,12,18.57a22.75,22.75,0,0,0,2.64,3.38A21.88,21.88,0,0,0,49.81,131Zm7.91-42.51c.84-1.4,1.78-1.79,3-1.4,1.48.61,1.79,2,.93,3.58l-1.79,2.92-2.74-4.14a10.83,10.83,0,0,0,.65-1m8.64,12.79a9.12,9.12,0,0,1-.13,1.79h-.09l-.66-.89a3.68,3.68,0,0,1,.86-.9ZM62.19,94c1-1.55,1.91-2,3.15-1.37S67,94.33,66.07,96s-1.52,2.72-2.29,4.06l-2.7-4.12Zm13.44,27.78a23.73,23.73,0,0,0,.88-9.33c-.22-4.2-.58-8.41-1-12.52A4.63,4.63,0,0,0,71,95.48a4.33,4.33,0,0,0-2.4.69c.84-3-.29-4.83-4.28-6.26a4.31,4.31,0,0,0-2.34-4.65,3.8,3.8,0,0,0-5.33.65,3.62,3.62,0,0,0-.22.32s-.46.58-.48.57a3.44,3.44,0,0,0-2.06-2.33,4.19,4.19,0,0,0-3.72,0,6.39,6.39,0,0,0-1.06.39,3.47,3.47,0,0,0-2,2.38l-.49-.55a3.81,3.81,0,0,0-5.3-1,1.86,1.86,0,0,0-.28.21,4.3,4.3,0,0,0-2.09,4.63c-3.58,1.47-4.82,3.19-4.21,5.76a4.51,4.51,0,0,0-2.25-.51,4.66,4.66,0,0,0-4.53,4.72c-.22,4.21-.41,8.43-.46,12.63a23.7,23.7,0,0,0,1.26,9.27l-4.13,6.89,20,12,4.54-7.57a13,13,0,0,0,3-1.24,13.21,13.21,0,0,0,3.58,1.38l4.81,7.43,19.54-12.76Z" transform="translate(0)"/><path class="cls-5" d="M66,116.05a3.89,3.89,0,0,1-.83,1.38l-6.64,7-6.42-6.79a3,3,0,0,1-.38-.41,3.81,3.81,0,0,1-.57-1,.81.81,0,0,0,0-.22,4.12,4.12,0,0,1-.18-1.21,3.94,3.94,0,0,1,.22-1.27,3.26,3.26,0,0,1,6.19-.27,1.4,1.4,0,0,0,1.27.84,1.35,1.35,0,0,0,1.25-.84,3.38,3.38,0,0,1,3.06-2.13,3.58,3.58,0,0,1,3.37,3.67,4.53,4.53,0,0,1-.34,1.21m-3.17-6.69a5.09,5.09,0,0,0-4.31,2.51,5,5,0,0,0-9.13,1.07,6.05,6.05,0,0,0-.3,1.79,5.45,5.45,0,0,0,.28,1.79.54.54,0,0,0,0,.18l.79-.38-.79.38.79-.38-.79.38a5.67,5.67,0,0,0,.84,1.5,4.9,4.9,0,0,0,.54.57l7.78,8.2,7.93-8.41a5.66,5.66,0,0,0,1.15-1.93,6.05,6.05,0,0,0,.3-1.79,5.38,5.38,0,0,0-5.08-5.48" transform="translate(0)"/></g><polygon class="cls-5" points="104.69 0 104.69 84.49 83.55 110.97 104.69 140.82 104.69 225.32 600 225.32 600 0 104.69 0"/></g></g></svg>