<svg xmlns="http://www.w3.org/2000/svg" xmlns:xlink="http://www.w3.org/1999/xlink" viewBox="0 0 600 225.32"><defs><style>.cls-1{fill:none;}.cls-2{clip-path:url(#clip-path);}.cls-3{fill:#244667;}.cls-4{clip-path:url(#clip-path-2);}.cls-5{fill:#fff;}</style><clipPath id="clip-path" transform="translate(0)"><rect class="cls-1" width="600" height="225.32"/></clipPath><clipPath id="clip-path-2" transform="translate(0)"><rect class="cls-1" x="21.04" y="81.35" width="62.62" height="62.62"/></clipPath></defs><title>info3</title><g id="Layer_2" data-name="Layer 2"><g id="Layer_1-2" data-name="Layer 1"><g class="cls-2"><path class="cls-3" d="M52.35,165A52.35,52.35,0,1,0,0,112.66,52.34,52.34,0,0,0,52.35,165" transform="translate(0)"/></g><g class="cls-4"><path class="cls-5" d="M79.19,131.94a35.36,35.36,0,0,0-4.29.85h-.12l-.38.14c-4.47,1.1-13.42,3.35-25.9,6.53a2.86,2.86,0,0,1-1.56-.13L27.1,125.08,27,125a2,2,0,0,1-.58-.41,2.39,2.39,0,0,1,1.56-4.08h.13a2.06,2.06,0,0,1,.7,0h.29l.34.14.2.12,2.12,1.57,12.12,7.83a1.22,1.22,0,0,0,.33.14,5.12,5.12,0,0,0,1.56.11h.19c.55-.13,3.13-.8,7.69-2h.23c.94-.27,1.9-.52,2.85-.76l3-.8a.5.5,0,0,0,.24-.09,4.34,4.34,0,0,0-1.39-8.08H50.7a1.1,1.1,0,0,1,0-2.18H62.89a12.35,12.35,0,0,1,7.43,2.62c.5.34,1,.7,1.47,1.06a14.93,14.93,0,0,0,7.5,3.59V132l-.1-.05m2-9.94a1.1,1.1,0,0,0-.88-.45c-3,0-5-1.57-7.3-3.21-.5-.38-1-.75-1.56-1.12a14.46,14.46,0,0,0-8.66-3H50.6a3.26,3.26,0,0,0-.45,6.5H58.2a2.18,2.18,0,0,1,1.69,2.57,2.21,2.21,0,0,1-1,1.41l-2.82.75c-1,.22-2,.49-2.9.75H53c-5.26,1.39-7,1.85-7.55,2a3.11,3.11,0,0,1-.61,0l-12-7.64L30.68,119l-.12-.08-.35-.2a5.28,5.28,0,0,0-.69-.29l-.57-.12a3.72,3.72,0,0,0-1.41,0,4.55,4.55,0,0,0-4.08,5,4.49,4.49,0,0,0,1.34,2.79,4.08,4.08,0,0,0,1,.77l19.76,14.33a1.4,1.4,0,0,0,.3.15h.16a4.91,4.91,0,0,0,1.7.3,5.86,5.86,0,0,0,1-.09h.09c12.53-3.14,21.49-5.45,25.94-6.55h.12l.39-.14a22.16,22.16,0,0,1,4.78-.83,1.08,1.08,0,0,0,1.09-1.07h0V122.85a1.14,1.14,0,0,0,0-.85" transform="translate(0)"/><path class="cls-5" d="M43.46,101a16.79,16.79,0,0,1,.25-1.87A16.2,16.2,0,0,1,58.59,85.91,16.15,16.15,0,0,1,43.46,101Zm11.95,6.07a12.76,12.76,0,0,1-16.72-.25l-.16-.12-.09-.1-.18-.14-.15-.15-.3-.33-.17-.19a12.79,12.79,0,0,1-.22-16.76,12.81,12.81,0,0,1,1,15.79,1.1,1.1,0,0,0,0,1.56,1.09,1.09,0,0,0,1.56,0,12.79,12.79,0,0,1,15.43.69M60.8,84.81h0a1.09,1.09,0,0,0-1-1.11h-.11a18.39,18.39,0,0,0-17,11.43A14.86,14.86,0,0,0,38.47,87l-.24-.19-.09-.09a1.09,1.09,0,0,0-1.47,0A14.93,14.93,0,0,0,36,107.19l-6.53,6.72L30.59,115l6.61-6.61a14.94,14.94,0,0,0,20.5-.57,1.14,1.14,0,0,0,0-1.57A15,15,0,0,0,48.91,102,18.28,18.28,0,0,0,60.8,84.81" transform="translate(0)"/></g><polygon class="cls-5" points="104.69 0 104.69 84.49 83.55 110.97 104.69 140.82 104.69 225.32 600 225.32 600 0 104.69 0"/></g></g></svg>