<svg xmlns="http://www.w3.org/2000/svg" xmlns:xlink="http://www.w3.org/1999/xlink" viewBox="0 0 600 225.32"><defs><style>.cls-1{fill:none;}.cls-2{clip-path:url(#clip-path);}.cls-3{fill:#244667;}.cls-4{fill:#fff;}.cls-5{clip-path:url(#clip-path-2);}</style><clipPath id="clip-path" transform="translate(0)"><rect class="cls-1" width="600" height="225.32"/></clipPath><clipPath id="clip-path-2" transform="translate(0)"><rect class="cls-1" x="20.86" y="81.77" width="62.69" height="62.69"/></clipPath></defs><title>info10</title><g id="Layer_2" data-name="Layer 2"><g id="Layer_1-2" data-name="Layer 1"><g class="cls-2"><path class="cls-3" d="M52.35,165A52.35,52.35,0,1,0,0,112.66,52.34,52.34,0,0,0,52.35,165" transform="translate(0)"/></g><polygon class="cls-4" points="104.69 0 104.69 84.49 83.55 110.97 104.69 140.82 104.69 225.32 600 225.32 600 0 104.69 0"/><g class="cls-5"><path class="cls-4" d="M55.28,84.17A3.28,3.28,0,1,1,52,87.44h0a3.28,3.28,0,0,1,3.27-3.27Zm0,8.3a5,5,0,1,0-5-5A5,5,0,0,0,55.28,92.47Z" transform="translate(0)"/><path class="cls-4" d="M51.43,98.29A.88.88,0,1,0,49.7,98l-1.14,5.94a2.49,2.49,0,0,0,1.95,2.92l1.84.38h.17a.87.87,0,0,0,.18-1.73l-1.85-.38a.73.73,0,0,1-.58-.86Z" transform="translate(0)"/><path class="cls-4" d="M42.11,107.47A2.31,2.31,0,0,1,44,107l.93.15a3.29,3.29,0,0,0,2.67,2.33l7,1.07a2.46,2.46,0,0,0,.72.11l.35,0,7.48-1.16a3.28,3.28,0,0,0,2.67-2.35l.8-.13a2.29,2.29,0,1,1,.75,4.52,2.43,2.43,0,0,1-.38,0H43.59a2.29,2.29,0,0,1-1.48-4Zm-2.57,1.75a4.05,4.05,0,0,0,4,4H66.92a4,4,0,1,0-.65-8l-.46.08-.79-7a6.72,6.72,0,0,0-3.21-5l-2.28-1.37a.87.87,0,0,0-1.21.25.88.88,0,0,0,.25,1.22l.06,0,2.29,1.38a5,5,0,0,1,2.38,3.71l.83,7.53a1.55,1.55,0,0,1-1.3,1.7l-7.47,1.15a.31.31,0,0,1-.19,0l-.13,0a.56.56,0,0,1-.31-.39.55.55,0,0,1,.39-.62l5-1.18a2.51,2.51,0,0,0,1.92-3L60.93,98a.87.87,0,0,0-1.09-.58.89.89,0,0,0-.62.93l1.14,5.7a.79.79,0,0,1-.59.92l-5.05,1.16h0a2.3,2.3,0,0,0-1.71,2.4l-5.16-.78A1.55,1.55,0,0,1,46.5,106l.84-7.53a5,5,0,0,1,2.39-3.71L52,93.38a.88.88,0,0,0-.91-1.5l-2.29,1.38a6.76,6.76,0,0,0-3.22,5l-.78,7-.59-.1a4.06,4.06,0,0,0-4.7,4" transform="translate(0)"/><path class="cls-4" d="M67.76,113.93a.89.89,0,0,0-.09,1.24h0a16.34,16.34,0,1,1-24.68,0A.87.87,0,1,0,41.71,114a.08.08,0,0,0,0,0A18.1,18.1,0,1,0,69,114a.87.87,0,0,0-1.24-.09" transform="translate(0)"/><path class="cls-4" d="M50.65,134.33l.49-1.37a7.36,7.36,0,0,0,3.72,1c2,0,3.41-1.17,3.41-2.84,0-1.48-.93-2.48-3.16-3.39-2.54-1-4.23-2.12-4.23-4.39a4,4,0,0,1,3.38-4,.87.87,0,0,0,.67-.86v-1.91h1.12v1.73a.87.87,0,0,0,.79.87,7.32,7.32,0,0,1,2.63.77L59,121.32a6.62,6.62,0,0,0-3.23-.81c-2.11,0-3.06,1.27-3.06,2.53,0,1.55,1.11,2.28,3.45,3.25,4,1.62,4,3.67,4,4.65a4.35,4.35,0,0,1-3.54,4.2.89.89,0,0,0-.67.85v2H54.61v-1.86a.88.88,0,0,0-.8-.88A7.63,7.63,0,0,1,50.65,134.33Zm3.8,5.45h1.67a1.51,1.51,0,0,0,1.51-1.52v-1.59A6,6,0,0,0,61.84,131c0-1.81-.52-4.43-5.06-6.28-2.36-1-2.36-1.34-2.36-1.63,0-.67.82-.77,1.3-.77a4.85,4.85,0,0,1,2.6.71,1.53,1.53,0,0,0,2.07-.57.88.88,0,0,0,.1-.22l.67-1.75a1.51,1.51,0,0,0-.66-1.86,8.24,8.24,0,0,0-2.72-1v-1.22a1.49,1.49,0,0,0-1.48-1.5H54.64a1.47,1.47,0,0,0-1.47,1.44v1.58a5.64,5.64,0,0,0-4.05,5.48c0,3.46,2.7,5,5.33,6,2,.83,2,1.44,2,1.76,0,.8-.89,1.09-1.65,1.09a5.48,5.48,0,0,1-3-.89,1.52,1.52,0,0,0-2.11.42,1.29,1.29,0,0,0-.17.33l-.64,1.79a1.51,1.51,0,0,0,.51,1.75A8.42,8.42,0,0,0,52.86,137v1.31a1.58,1.58,0,0,0,1.59,1.51" transform="translate(0)"/><path class="cls-4" d="M37.73,84.77a.89.89,0,0,0,.88-.87v-.79a.88.88,0,0,0-1.76,0v.79a.87.87,0,0,0,.88.87" transform="translate(0)"/><path class="cls-4" d="M38.6,89.27v-.78a.88.88,0,1,0-1.75,0v.78a.88.88,0,1,0,1.75,0Z" transform="translate(0)"/><path class="cls-4" d="M35.43,85.31h-.78a.88.88,0,0,0,0,1.76h.78a.88.88,0,0,0,0-1.76Z" transform="translate(0)"/><path class="cls-4" d="M40,87.07h.78a.88.88,0,0,0,0-1.76H40a.88.88,0,1,0,0,1.76Z" transform="translate(0)"/><path class="cls-4" d="M28.75,96.86a.87.87,0,0,0-.88.88h0v.77a.88.88,0,1,0,1.76,0v-.77a.88.88,0,0,0-.87-.89h0" transform="translate(0)"/><path class="cls-4" d="M28.75,102.23a.87.87,0,0,0-.88.88v.78a.88.88,0,0,0,1.76,0v-.78A.88.88,0,0,0,28.75,102.23Z" transform="translate(0)"/><path class="cls-4" d="M26.46,99.93h-.79a.88.88,0,1,0,0,1.76h.79a.88.88,0,0,0,0-1.76" transform="translate(0)"/><path class="cls-4" d="M31.83,99.93H31a.88.88,0,0,0,0,1.76h.79a.88.88,0,1,0,0-1.76Z" transform="translate(0)"/><path class="cls-4" d="M75.66,90.17a.88.88,0,0,0,.88-.88v-.78a.88.88,0,1,0-1.76,0v.78a.88.88,0,0,0,.88.88" transform="translate(0)"/><path class="cls-4" d="M76.52,94.66v-.78a.88.88,0,0,0-1.75,0v.78a.88.88,0,1,0,1.75,0" transform="translate(0)"/><path class="cls-4" d="M73.35,90.71h-.79a.88.88,0,0,0,0,1.76h.78a.88.88,0,1,0,0-1.75Z" transform="translate(0)"/><path class="cls-4" d="M78.73,90.71h-.79a.88.88,0,0,0-.88.88.89.89,0,0,0,.88.88h.79a.88.88,0,1,0,0-1.76" transform="translate(0)"/><path class="cls-4" d="M76.77,103.89A1.13,1.13,0,1,0,77.89,105a1.12,1.12,0,0,0-1.12-1.13" transform="translate(0)"/><path class="cls-4" d="M39.62,98.8a1.13,1.13,0,1,0-1.13-1.13,1.13,1.13,0,0,0,1.13,1.13" transform="translate(0)"/></g></g></g></svg>