<svg xmlns="http://www.w3.org/2000/svg" xmlns:xlink="http://www.w3.org/1999/xlink" viewBox="0 0 600 225.32"><defs><style>.cls-1{fill:none;}.cls-2{clip-path:url(#clip-path);}.cls-3{fill:#244667;}.cls-4{clip-path:url(#clip-path-2);}.cls-5{fill:#fff;}</style><clipPath id="clip-path" transform="translate(0)"><rect class="cls-1" width="600" height="225.32"/></clipPath><clipPath id="clip-path-2" transform="translate(0)"><rect class="cls-1" x="21.04" y="81.35" width="62.62" height="62.62"/></clipPath></defs><title>info8</title><g id="Layer_2" data-name="Layer 2"><g id="Layer_1-2" data-name="Layer 1"><g class="cls-2"><path class="cls-3" d="M52.35,165A52.35,52.35,0,1,0,0,112.66,52.34,52.34,0,0,0,52.35,165" transform="translate(0)"/></g><g class="cls-4"><path class="cls-5" d="M54.61,105.91l-2.69,5.36a1,1,0,0,1-.94.5l-3.59-.41a1,1,0,0,0-.21,1.93l1.42.16a5.52,5.52,0,0,1-1.17,3.27,7.57,7.57,0,0,0-1.22-1.18,1.87,1.87,0,0,1-.54-.58l-1.37-2.4a1.94,1.94,0,0,1-.16-1.53l2.5-7.74a2.52,2.52,0,0,1,2.13-1.75l1.16-.14a4.49,4.49,0,0,1,2,.25.15.15,0,0,0,0,0L54.54,105a.92.92,0,0,1,.07.93M82.8,126.5l-3.11-2.24a1,1,0,0,0-1.24.1,106.54,106.54,0,0,0-7.27,8.15c-1.36,1.64-2.65,3.19-3.7,4.3-1.38,1.45-1.88,1.63-2,1.65s-1.22-.25-4.71-4.08c-2-2.19-4.41-5.18-6.85-8.44.5-1.46,1-3,1.4-4.8a29.82,29.82,0,0,0,5.28,4.62,12.94,12.94,0,0,1,4.33,4.4l.44,1.56a1,1,0,0,0,.93.71.75.75,0,0,0,.26,0,1,1,0,0,0,.68-1.19h0l-.32-1.12a15.28,15.28,0,0,0,1.1-2.22c1.53-3.45,4.38-9.88,9.63-11.93a1,1,0,0,0,.58-.62,6.85,6.85,0,0,1,4.12-4,1,1,0,0,0-.66-1.82,8.81,8.81,0,0,0-5.16,4.86c-5.71,2.49-8.66,9.15-10.27,12.77-.14.3-.27.62-.41.91a16.3,16.3,0,0,0-4.1-3.8,27.43,27.43,0,0,1-5.9-5.43c.15-.71.3-1.46.42-2.22,1.17-1.36,3.41-3.84,3.43-3.86l0,0a3.9,3.9,0,0,0,.92-2.85v-.1l-.83-4.51A2.9,2.9,0,0,0,58.38,103l-4.81-2.71a6.31,6.31,0,0,0-3.85-.78l-1.17.14a4.52,4.52,0,0,0-3.76,3.08l-2.49,7.74a3.82,3.82,0,0,0,.32,3.08L44,115.9a3.72,3.72,0,0,0,1.09,1.21,6.09,6.09,0,0,1,1,1,13.27,13.27,0,0,1-1.14.83,22.42,22.42,0,0,0-4.82,4c-1.07-3-3-6.23-6.36-7.79a9.18,9.18,0,0,0-3.9-.84,6.38,6.38,0,0,0-4.07-4,6.18,6.18,0,0,0-3-.19,1,1,0,1,0,.4,1.89,4.63,4.63,0,0,1,2.06.17,4.88,4.88,0,0,1,3,3.47,1,1,0,0,0,1.09.67c.27,0,6.58-1,9.35,8.62a7.56,7.56,0,0,0-.81,3.71,1,1,0,0,0,1,.91h.05a1,1,0,0,0,.91-1h0a5.35,5.35,0,0,1,.72-2.88.83.83,0,0,0,.08-.12s1.23-2.28,5.35-4.89c3.89-2.47,4.49-5.53,4.55-6.93l.23,0a2.88,2.88,0,0,0,2.88-1.56l2.7-5.35a2.84,2.84,0,0,0-.15-2.83l1.22.68a1,1,0,0,1,.49.77v.1l.83,4.49a1.93,1.93,0,0,1-.46,1.38c-.2.23-2.53,2.8-3.63,4.08a1.05,1.05,0,0,0-.21.47c-1.86,11-5.3,16.51-7.85,19.24a10.9,10.9,0,0,1-4.85,3.25c-1.66-.49-12.63-3.95-16.71-10a1,1,0,0,0-.64-.39,1,1,0,0,0-.74.17l-1.77,1.32A1,1,0,0,0,23,131.05l1-.74c5.18,6.6,16.91,9.93,17.43,10.06a1.09,1.09,0,0,0,.26,0h.12c.35,0,6.74-1.06,11.32-12.31,2.25,2.95,4.44,5.63,6.28,7.65,3.77,4.14,5.25,4.67,6.1,4.67,1.56,0,3.43-2.16,7.17-6.66,2-2.39,4.22-5.08,6.55-7.43l2.43,1.75a1,1,0,1,0,1.14-1.57Z" transform="translate(0)"/><path class="cls-5" d="M27.57,124.26a1,1,0,0,0,1.6-.74,1,1,0,0,0-.35-.74,12.51,12.51,0,0,1-2.06-3.48,1,1,0,0,0-1.79.75c.14.32,1.35,3.16,2.6,4.21" transform="translate(0)"/><path class="cls-5" d="M43,97.39A1,1,0,0,0,44.36,96l-4.75-4.75a1,1,0,1,0-1.37,1.37Z" transform="translate(0)"/><path class="cls-5" d="M59.13,97.31a1,1,0,0,0,.69-.29l4.84-4.84a1,1,0,0,0-1.38-1.37l-4.83,4.85a1,1,0,0,0,0,1.37,1,1,0,0,0,.69.28" transform="translate(0)"/><path class="cls-5" d="M51.23,93.57a1,1,0,0,0,1-1V85.88a1,1,0,0,0-1.94,0v6.71a1,1,0,0,0,1,1Z" transform="translate(0)"/></g><polygon class="cls-5" points="104.69 0 104.69 84.49 83.55 110.97 104.69 140.82 104.69 225.32 600 225.32 600 0 104.69 0"/></g></g></svg>