<svg xmlns="http://www.w3.org/2000/svg" xmlns:xlink="http://www.w3.org/1999/xlink" viewBox="0 0 600 225.32"><defs><style>.cls-1{fill:none;}.cls-2{clip-path:url(#clip-path);}.cls-3{fill:#244667;}.cls-4{clip-path:url(#clip-path-2);}.cls-5{fill:#fff;}</style><clipPath id="clip-path" transform="translate(0)"><rect class="cls-1" width="600" height="225.32"/></clipPath><clipPath id="clip-path-2" transform="translate(0)"><rect class="cls-1" x="21.04" y="81.35" width="62.62" height="62.62"/></clipPath></defs><title>info6</title><g id="Layer_2" data-name="Layer 2"><g id="Layer_1-2" data-name="Layer 1"><g class="cls-2"><path class="cls-3" d="M52.35,165A52.35,52.35,0,1,0,0,112.66,52.34,52.34,0,0,0,52.35,165" transform="translate(0)"/></g><g class="cls-4"><path class="cls-5" d="M76.83,132.41l-16.41-5.28-.55-6.38a12.93,12.93,0,0,0,2.8-5.38l.15-1.22a7,7,0,0,1,.91-2.66A9.1,9.1,0,0,0,65,107v-6.51a1,1,0,0,0-1.91,0V107a7.13,7.13,0,0,1-1,3.55,8.83,8.83,0,0,0-1.15,3.37l-.15,1.23a11.62,11.62,0,0,1-2.57,4.63.91.91,0,0,0-.21.85.82.82,0,0,0,0,.31l.61,7a.93.93,0,0,0,.65.83l17,5.47a7.19,7.19,0,0,1,5,6.88,1,1,0,0,0,1.91,0,9.07,9.07,0,0,0-6.36-8.7" transform="translate(0)"/><path class="cls-5" d="M78.88,121.53l-.22-2.5A6.25,6.25,0,0,0,80,116.39l.07-.57a2.89,2.89,0,0,1,.36-1.07,4.73,4.73,0,0,0,.65-2.38V109.6a6.18,6.18,0,0,0-12.35,0v2.91a4.81,4.81,0,0,0,.5,2.11l.09.18a2.86,2.86,0,0,1,.28.9l.08.7a6.08,6.08,0,0,0,1.22,2.51l-.23,2.61-7.44,2.42a1,1,0,0,0,.29,1.88.93.93,0,0,0,.29,0l8-2.59a.93.93,0,0,0,.66-.82l.28-3.32v-.13a1,1,0,0,0-.19-.86,5.37,5.37,0,0,1-1-1.86l-.09-.69A4.63,4.63,0,0,0,71,114l-.09-.18a2.85,2.85,0,0,1-.31-1.25V109.6a4.27,4.27,0,0,1,8.53,0v2.78a2.83,2.83,0,0,1-.39,1.42,4.74,4.74,0,0,0-.6,1.79l-.08.57A5,5,0,0,1,77,118.08a.94.94,0,0,0-.23.73.67.67,0,0,0,0,.2l.28,3.32a1,1,0,0,0,.66.82l3.88,1.25a1,1,0,1,0,.58-1.81Z" transform="translate(0)"/><path class="cls-5" d="M22.81,124.56l4.38-1.41a.93.93,0,0,0,.66-.82l.29-3.32v-.13A1,1,0,0,0,28,118a5.21,5.21,0,0,1-1-1.86l-.09-.7a4.48,4.48,0,0,0-.46-1.51l-.08-.18a2.9,2.9,0,0,1-.32-1.25V109.6a4.27,4.27,0,0,1,8.53,0v2.78a2.82,2.82,0,0,1-.38,1.42,4.76,4.76,0,0,0-.61,1.79l0,.57a5.14,5.14,0,0,1-1.1,1.93,1,1,0,0,0-.23.72v.2l.29,3.32a.93.93,0,0,0,.66.82l8,2.59a1,1,0,0,0,.58-1.82l-7.43-2.39L34,119a6.14,6.14,0,0,0,1.3-2.63l.08-.58a2.89,2.89,0,0,1,.36-1.07,4.72,4.72,0,0,0,.64-2.38V109.6a6.17,6.17,0,0,0-12.34,0v2.91a4.68,4.68,0,0,0,.5,2.11l.09.18a2.84,2.84,0,0,1,.27.9l.09.7a6.13,6.13,0,0,0,1.21,2.51L26,121.53l-3.8,1.22a1,1,0,0,0-.68,1.16,1,1,0,0,0,1,.72,1,1,0,0,0,.29-.07" transform="translate(0)"/><path class="cls-5" d="M73.62,88.25l3.81-2.33v1.3L73.62,89.6Zm2,3.61-1.13-.57,3.79-2.36,1.14.58ZM61.31,103.62a12.4,12.4,0,0,0-.08-1.36,1,1,0,1,0-1.9.22,8.72,8.72,0,0,1,.07,1.14c0,4.38-2.89,7.92-6.45,7.92S46.5,108,46.5,103.62,49.4,95.7,53,95.7a6.21,6.21,0,0,1,5.32,3.47l-2.61,1.62a3.47,3.47,0,0,0-2.72-1.39,4.26,4.26,0,0,0,0,8.43,3.62,3.62,0,0,0,3.2-2.15,1,1,0,0,0-1.71-.83A1.75,1.75,0,0,1,53,105.93a2.38,2.38,0,0,1,0-4.59,1.51,1.51,0,0,1,1.08.5l-1.58,1a1,1,0,0,0,1,1.61l19.17-12,2.63,1.33a1,1,0,0,0,.41.11.89.89,0,0,0,.5-.15l5.71-3.53a.94.94,0,0,0-.07-1.66l-2.48-1.25v-3.1a.94.94,0,0,0-.91-1,1,1,0,0,0-.55.15L72.17,86.9a1,1,0,0,0-.46.82v3.07l-8,5A12,12,0,0,0,41,101.1v6.15a8.94,8.94,0,0,0,.94,4l.18.36a7.22,7.22,0,0,1,.69,2.26l.19,1.49c.21,1.71,1.66,3.92,2.62,5.16a.86.86,0,0,0,0,.23L45,127.13l-16.4,5.28a9.07,9.07,0,0,0-6.36,8.68,1,1,0,1,0,1.91,0,7.2,7.2,0,0,1,5-6.88l17-5.46a1,1,0,0,0,.66-.82l.6-7a1.06,1.06,0,0,0,0-.31,1,1,0,0,0-.13-1,11.59,11.59,0,0,1-2.44-4.47l-.19-1.48a8.76,8.76,0,0,0-.87-2.87l-.18-.37a7,7,0,0,1-.74-3.14V101.1a10.09,10.09,0,0,1,19.21-4.29l-2.19,1.35a8.11,8.11,0,0,0-7-4.37c-4.61,0-8.36,4.4-8.36,9.82s3.76,9.83,8.36,9.83,8.37-4.4,8.37-9.82" transform="translate(0)"/></g><polygon class="cls-5" points="104.69 0 104.69 84.49 83.55 110.97 104.69 140.82 104.69 225.32 600 225.32 600 0 104.69 0"/></g></g></svg>