<svg xmlns="http://www.w3.org/2000/svg" xmlns:xlink="http://www.w3.org/1999/xlink" viewBox="0 0 600 225.32"><defs><style>.cls-1{fill:none;}.cls-2{clip-path:url(#clip-path);}.cls-3{fill:#244667;}.cls-4{clip-path:url(#clip-path-2);}.cls-5{fill:#fff;}</style><clipPath id="clip-path" transform="translate(0)"><rect class="cls-1" width="600" height="225.32"/></clipPath><clipPath id="clip-path-2" transform="translate(0)"><rect class="cls-1" x="21.04" y="81.35" width="62.62" height="62.62"/></clipPath></defs><title>info1</title><g id="Layer_2" data-name="Layer 2"><g id="Layer_1-2" data-name="Layer 1"><g class="cls-2"><path class="cls-3" d="M52.35,165A52.35,52.35,0,1,0,0,112.66,52.34,52.34,0,0,0,52.35,165" transform="translate(0)"/></g><g class="cls-4"><path class="cls-5" d="M81.05,133.31A4.73,4.73,0,0,1,76.34,138H71.19a5.56,5.56,0,0,1-3.93-5.29v-7.9a1.05,1.05,0,1,0-2.1,0v7.9A7.61,7.61,0,0,0,67.3,138H57.8a29.25,29.25,0,0,1-5.12-.43,62.87,62.87,0,0,0-8.23-.7L44.16,114c3.66-1.17,6.3-4.61,7.42-9.7.16-.72.54-1,2-1.79,1-.57,2-1.19,2.93-1.85,3.32-2.36,4.91-7.91,5.66-12.13a3.67,3.67,0,0,1,7.29.64,1.15,1.15,0,0,1,0,.19,56.61,56.61,0,0,1-.63,6.09c-.92,5.69-6,10.19-6.07,10.23a1,1,0,0,0-.33,1.1v12.12a11.35,11.35,0,0,1-7,10.5l-1.65.66a1.07,1.07,0,0,0,.82,2l1.65-.66a13.44,13.44,0,0,0,8.31-12.45v-11.4H76.36a4.72,4.72,0,0,1,4.71,4.72ZM41.59,139.8l-8.43.11a.86.86,0,0,1-.78-.94l-.31-26.06a1,1,0,0,1,.25-.71.72.72,0,0,1,.51-.25l8.43-.11a.88.88,0,0,1,.78.93l.33,26.07a.88.88,0,0,1-.78.95Zm39.58-32.43a6.75,6.75,0,0,0-4.83-2H65.91a20,20,0,0,0,4.94-9.64,55.7,55.7,0,0,0,.66-6.32,5.78,5.78,0,0,0-11.46-1.3c-1,5.43-2.67,9.26-4.79,10.77-1.12.79-2,1.32-2.77,1.75-1.52.87-2.61,1.5-3,3.16-1.12,5.08-3.49,7.16-5.54,8a2.9,2.9,0,0,0-2.72-2h0l-8.43.11a2.82,2.82,0,0,0-2,1,3.11,3.11,0,0,0-.78,2.14v.2H22.58a1.06,1.06,0,0,0,0,2.11H30l.26,21.64H22.58a1.06,1.06,0,0,0,0,2.11h7.69a3,3,0,0,0,2.88,3h0l8.42-.11a3,3,0,0,0,2.84-2.9,60.82,60.82,0,0,1,7.86.66,32.55,32.55,0,0,0,5.49.46H76.34a6.83,6.83,0,0,0,6.82-6.82V112.19a6.74,6.74,0,0,0-2-4.82" transform="translate(0)"/><path class="cls-5" d="M37.21,135.44a1.22,1.22,0,1,1,1.21-1.21,1.21,1.21,0,0,1-1.21,1.21m0-4.53a3.32,3.32,0,1,0,3.32,3.32,3.31,3.31,0,0,0-3.32-3.32" transform="translate(0)"/></g><polygon class="cls-5" points="104.69 0 104.69 84.49 83.55 110.97 104.69 140.82 104.69 225.32 600 225.32 600 0 104.69 0"/></g></g></svg>