<svg xmlns="http://www.w3.org/2000/svg" xmlns:xlink="http://www.w3.org/1999/xlink" viewBox="0 0 600 225.32"><defs><style>.cls-1{fill:none;}.cls-2{clip-path:url(#clip-path);}.cls-3{fill:#244667;}.cls-4{clip-path:url(#clip-path-2);}.cls-5{fill:#fff;}</style><clipPath id="clip-path" transform="translate(0)"><rect class="cls-1" width="600" height="225.32"/></clipPath><clipPath id="clip-path-2" transform="translate(0)"><rect class="cls-1" x="21.04" y="81.35" width="62.62" height="62.62"/></clipPath></defs><title>info5</title><g id="Layer_2" data-name="Layer 2"><g id="Layer_1-2" data-name="Layer 1"><g class="cls-2"><path class="cls-3" d="M52.35,165A52.35,52.35,0,1,0,0,112.66,52.34,52.34,0,0,0,52.35,165" transform="translate(0)"/></g><g class="cls-4"><path class="cls-5" d="M47.17,111.94h7.55a.72.72,0,0,1,.7.72.73.73,0,0,1-.7.74H43A11.54,11.54,0,0,1,36.1,111l-1.4-1a14.9,14.9,0,0,0-7-3.39V99.23a36.82,36.82,0,0,0,3.87-.78l.11,0,.35-.13c4.28-1,12.57-3.16,24.64-6.22a2.64,2.64,0,0,1,1.28.1l18.06,13,.79.58H77a2.68,2.68,0,0,1,.48.35,1.93,1.93,0,0,1-1.22,3.33h0a1.42,1.42,0,0,1-.58,0h-.23l-.27-.12H75L73,107.86l-11.62-7.47a.81.81,0,0,0-.4-.18,4.64,4.64,0,0,0-1.53-.11h-.23L51.91,102H51.7c-.91.28-1.82.51-2.71.72l-2.85.75-.31.14a4.43,4.43,0,0,0,1.34,8.3m10.76,1.47v-.11a3.23,3.23,0,0,0,0-1.24V112H61.8a11.54,11.54,0,0,1,6.89,2.42c.49.35,1,.68,1.4,1a15,15,0,0,0,7,3.44v7.24a36.82,36.82,0,0,0-3.87.78h-.13l-.37.13c-6.45,1.59-20.48,5.17-24.62,6.22a2.76,2.76,0,0,1-1.34,0L28,119.67l-.2-.14a2.54,2.54,0,0,1-.46-.35,1.91,1.91,0,0,1-.58-1.39,1.94,1.94,0,0,1,1.82-1.94h.15a1.42,1.42,0,0,1,.58,0h.21l.28.12-.06.06,1.93,1.45L43.3,125a1.07,1.07,0,0,0,.42.19,5.51,5.51,0,0,0,1.51.12h.24l7.35-1.93H53c.9-.27,1.8-.51,2.71-.72l.8-.21,2.24-.56.31-.14A4.43,4.43,0,0,0,58,113.49a.13.13,0,0,0,0-.08M46.82,106.1l2.63-.7c.91-.23,1.94-.46,2.77-.73h.18l7.16-1.94a2.94,2.94,0,0,1,.42,0l11.29,7.32,2,1.49h.15l.35.19.7.29.6.14a5,5,0,0,0,1.45,0,4.66,4.66,0,0,0,2.83-7.92,4.46,4.46,0,0,0-1-.75L59.52,89.9a1.62,1.62,0,0,0-.41-.22h-.17a5.23,5.23,0,0,0-2.77-.27H56c-12.15,3.14-20.46,5.23-24.69,6.27h-.14l-.37.12a21.24,21.24,0,0,1-4.47.77A1.34,1.34,0,0,0,25,97.91v9.7a1.3,1.3,0,0,0,.24,1.06,1.33,1.33,0,0,0,1.08.56,11.17,11.17,0,0,1,6.78,3l1.47,1.07A14,14,0,0,0,43,116.22H57.35a1.76,1.76,0,0,1,1.39,1.72A1.72,1.72,0,0,1,58,119.4l-1.94.5-.79.19c-.91.24-1.93.47-2.75.74h-.19c-4.92,1.3-6.62,1.74-7.14,1.93h-.45l-11.26-7.45-2.06-1.49-.15-.1-.35-.19-.7-.29a2.36,2.36,0,0,0-.6-.11,3.45,3.45,0,0,0-1.43,0A4.65,4.65,0,0,0,25.3,121a4.87,4.87,0,0,0,1,.76l18.89,13.7a1.41,1.41,0,0,0,.37.18h.14a5.35,5.35,0,0,0,1.74.31,6.73,6.73,0,0,0,1.1-.12c4.16-1.06,18.28-4.67,24.68-6.23h.16l.35-.12a21.68,21.68,0,0,1,4.47-.78,1.33,1.33,0,0,0,1.33-1.33v-.68a.74.74,0,0,0,0-.21v-8.75a1.33,1.33,0,0,0-1.1-1.53l-.21,0a11.06,11.06,0,0,1-6.78-3L70,112.16a14,14,0,0,0-8.42-2.93H47.4a1.74,1.74,0,0,1-.58-3.17Z" transform="translate(0)"/></g><polygon class="cls-5" points="104.69 0 104.69 84.49 83.55 110.97 104.69 140.82 104.69 225.32 600 225.32 600 0 104.69 0"/></g></g></svg>