<svg xmlns="http://www.w3.org/2000/svg" xmlns:xlink="http://www.w3.org/1999/xlink" viewBox="0 0 600 225.32"><defs><style>.cls-1{fill:none;}.cls-2{clip-path:url(#clip-path);}.cls-3{fill:#244667;}.cls-4{clip-path:url(#clip-path-2);}.cls-5{fill:#fff;}</style><clipPath id="clip-path" transform="translate(0)"><rect class="cls-1" width="600" height="225.32"/></clipPath><clipPath id="clip-path-2" transform="translate(0)"><rect class="cls-1" x="21.04" y="81.35" width="62.62" height="62.62"/></clipPath></defs><title>info7</title><g id="Layer_2" data-name="Layer 2"><g id="Layer_1-2" data-name="Layer 1"><g class="cls-2"><path class="cls-3" d="M52.35,165A52.35,52.35,0,1,0,0,112.66,52.34,52.34,0,0,0,52.35,165" transform="translate(0)"/></g><g class="cls-4"><path class="cls-5" d="M68.91,83.72a3.84,3.84,0,1,1-3.85,3.85,3.83,3.83,0,0,1,3.85-3.85m0,9.59a5.76,5.76,0,1,0-5.76-5.76h0a5.76,5.76,0,0,0,5.76,5.75" transform="translate(0)"/><path class="cls-5" d="M74.09,95.32l-.5-1.5a1,1,0,1,0-1.83.61l.5,1.51a5.78,5.78,0,0,1-.56,4.91l-4.63,7.52a.75.75,0,0,0-.07.12,1.54,1.54,0,0,1-.6.71l-9.88,4.93-.15.09a1.14,1.14,0,0,1-1.53-1.67l10.24-6a1,1,0,0,0,.38-.42l3-6.48A1,1,0,0,0,68,98.37a1,1,0,0,0-1.26.46l-.86,1.86-.14-1.17a4.3,4.3,0,0,1,.66-2.88l.91-1.38a1,1,0,0,0-1.59-1.1l0,.06-.9,1.38a6.22,6.22,0,0,0-1,4.18l.51,4.23-.47,1-10.08,5.91a1.09,1.09,0,0,0-.17.13,3.07,3.07,0,0,0,3.86,4.74l6.84-3.41v30.08a1,1,0,1,0,1.93,0v-31l1.07-.54.07,0a3.49,3.49,0,0,0,1.38-1.54l3.75-6.07.09,10.61-4.06,28.55a1,1,0,0,0,.82,1.09.33.33,0,0,0,.14,0,1,1,0,0,0,1-.83l4.06-28.62a.38.38,0,0,0,0-.15l-.12-14.49a1.23,1.23,0,0,0,0-.19,7.75,7.75,0,0,0-.26-3.91" transform="translate(0)"/><path class="cls-5" d="M35.79,83.72A3.84,3.84,0,1,1,32,87.57a3.84,3.84,0,0,1,3.83-3.85m0,9.59A5.76,5.76,0,1,0,30,87.55h0a5.76,5.76,0,0,0,5.76,5.75" transform="translate(0)"/><path class="cls-5" d="M51.1,111.07l-.17-.12L40.85,105l-.47-1,.52-4.24a6.2,6.2,0,0,0-1-4.17L39,94.22a1,1,0,1,0-1.75.8,1,1,0,0,0,.15.24l.89,1.38A4.36,4.36,0,0,1,39,99.52l-.15,1.17L38,98.83a1,1,0,1,0-1.75.81l3,6.46a.86.86,0,0,0,.38.42l10.23,6a1.15,1.15,0,0,1-.09,1.62,1.13,1.13,0,0,1-1.44.06l-.15-.09-9.85-4.94a1.56,1.56,0,0,1-.61-.71.75.75,0,0,0-.07-.12L33,100.85a5.78,5.78,0,0,1-.57-4.91l.51-1.51a1,1,0,0,0-1.83-.61l-.51,1.5a7.71,7.71,0,0,0-.27,3.93,1.1,1.1,0,0,0,0,.18l-.12,14.49v.15l4.06,28.62a1,1,0,0,0,1,.83h.13a1,1,0,0,0,.84-1.08v0l-4.05-28.55.08-10.61,3.74,6.07a3.51,3.51,0,0,0,1.39,1.54l.06,0,1.06.53v31a1,1,0,1,0,1.93,0V112.39l6.86,3.42a3.07,3.07,0,0,0,3.86-4.74" transform="translate(0)"/><path class="cls-5" d="M52.14,104.24a1,1,0,0,0,1-1V99.16a1,1,0,0,0-1.93,0v4.11a1,1,0,0,0,1,1h0" transform="translate(0)"/><path class="cls-5" d="M55.3,106.11a1,1,0,0,0,1.34-.21l2.23-3.06a1,1,0,1,0-1.56-1.13l-2.22,3.05a1,1,0,0,0,.21,1.35" transform="translate(0)"/><path class="cls-5" d="M47.67,105.9a1,1,0,0,0,1.34.26,1,1,0,0,0,.26-1.33.25.25,0,0,0,0-.07L47,101.71a1,1,0,0,0-1.35-.22,1,1,0,0,0-.21,1.35Z" transform="translate(0)"/><path class="cls-5" d="M52.14,120.56a1,1,0,0,0-1,1v4.11a1,1,0,1,0,1.92,0v-4.11A1,1,0,0,0,52.14,120.56Z" transform="translate(0)"/><path class="cls-5" d="M49,118.69a1,1,0,0,0-1.35.21L45.45,122a1,1,0,0,0,1.51,1.2l0-.07,2.22-3a1,1,0,0,0-.21-1.35" transform="translate(0)"/><path class="cls-5" d="M56.64,118.9a1,1,0,0,0-1.35-.21,1,1,0,0,0-.21,1.35l2.23,3A1,1,0,0,0,58.87,122Z" transform="translate(0)"/></g><polygon class="cls-5" points="104.69 0 104.69 84.49 83.55 110.97 104.69 140.82 104.69 225.32 600 225.32 600 0 104.69 0"/></g></g></svg>